<svg xmlns="http://www.w3.org/2000/svg" xmlns:xlink="http://www.w3.org/1999/xlink" width="500" zoomAndPan="magnify" viewBox="0 0 375 374.999991" height="500" preserveAspectRatio="xMidYMid meet" version="1.0"><defs><g/><clipPath id="eb781ccddc"><path d="M 64.007812 14.542969 L 310.757812 14.542969 L 310.757812 292.042969 L 64.007812 292.042969 Z M 64.007812 14.542969 " clip-rule="nonzero"/></clipPath><clipPath id="cd899d5762"><path d="M 203.582031 32.710938 L 289.933594 82.664062 C 291.683594 81.445312 293.820312 80.738281 296.109375 80.738281 C 297.566406 80.738281 298.976562 81.03125 300.261719 81.574219 C 301.597656 82.125 302.789062 82.933594 303.789062 83.933594 C 304.777344 84.925781 305.582031 86.125 306.140625 87.46875 C 306.671875 88.761719 306.976562 90.164062 306.976562 91.625 C 306.976562 93.085938 306.683594 94.5 306.140625 95.785156 C 305.59375 97.125 304.785156 98.316406 303.789062 99.316406 C 303.054688 100.050781 302.210938 100.683594 301.285156 101.191406 L 301.277344 101.179688 C 301.113281 101.273438 300.9375 101.355469 300.773438 101.4375 L 300.773438 201.292969 C 301.351562 201.542969 301.9375 201.835938 302.515625 202.175781 C 304.4375 203.285156 306.058594 204.746094 307.34375 206.417969 C 308.671875 208.152344 309.632812 210.117188 310.183594 212.191406 C 312.519531 220.910156 307.324219 230.054688 298.527344 232.402344 C 296.46875 232.953125 294.285156 233.109375 292.113281 232.816406 C 290.308594 232.578125 288.515625 232.035156 286.800781 231.164062 L 286.738281 231.164062 L 286.011719 230.75 C 285.445312 230.421875 284.894531 230.054688 284.363281 229.660156 L 200.503906 278.164062 C 200.523438 278.421875 200.523438 278.667969 200.523438 278.925781 C 200.523438 280.6875 200.164062 282.378906 199.523438 283.9375 L 199.523438 283.949219 C 198.855469 285.5625 197.882812 287.003906 196.683594 288.207031 C 195.492188 289.398438 194.042969 290.375 192.433594 291.042969 C 190.875 291.6875 189.1875 292.042969 187.421875 292.042969 C 185.660156 292.042969 183.964844 291.6875 182.410156 291.042969 C 180.785156 290.375 179.347656 289.398438 178.15625 288.207031 C 176.964844 287.011719 175.996094 285.5625 175.328125 283.949219 C 174.683594 282.394531 174.328125 280.699219 174.328125 278.925781 C 174.328125 278.722656 174.335938 278.523438 174.347656 278.3125 L 90.46875 229.789062 C 89.910156 230.210938 89.320312 230.605469 88.71875 230.953125 L 88.707031 230.960938 L 88.699219 230.960938 L 88.691406 230.953125 C 86.757812 232.0625 84.695312 232.742188 82.617188 233.019531 C 80.445312 233.304688 78.261719 233.15625 76.210938 232.605469 C 74.140625 232.054688 72.171875 231.089844 70.449219 229.761719 C 68.789062 228.484375 67.332031 226.851562 66.214844 224.902344 L 66.195312 224.867188 L 66.1875 224.875 C 65.089844 222.957031 64.417969 220.894531 64.144531 218.800781 C 63.859375 216.625 64.015625 214.449219 64.566406 212.390625 C 65.117188 210.316406 66.078125 208.351562 67.40625 206.617188 C 68.679688 204.957031 70.3125 203.496094 72.253906 202.378906 L 72.976562 201.964844 L 73.011719 201.964844 C 73.296875 201.816406 73.582031 201.679688 73.847656 201.558594 L 73.847656 101.660156 C 73.609375 101.558594 73.378906 101.457031 73.152344 101.335938 C 72.078125 100.804688 71.125 100.105469 70.328125 99.308594 C 69.339844 98.316406 68.542969 97.125 67.984375 95.773438 C 67.453125 94.480469 67.148438 93.074219 67.148438 91.617188 C 67.148438 90.164062 67.441406 88.761719 67.984375 87.46875 L 67.984375 87.457031 C 68.535156 86.125 69.339844 84.925781 70.339844 83.933594 C 72.300781 81.96875 75.019531 80.746094 78.015625 80.746094 C 79.472656 80.746094 80.882812 81.042969 82.167969 81.582031 C 82.972656 81.914062 83.722656 82.34375 84.410156 82.839844 L 170.800781 32.867188 C 170.734375 32.277344 170.699219 31.671875 170.699219 31.066406 C 170.699219 28.855469 171.148438 26.714844 171.953125 24.761719 L 171.953125 24.75 C 173.410156 21.21875 175.105469 19.75 177.882812 17.445312 C 178.816406 16.800781 179.824219 16.261719 180.878906 15.820312 C 182.828125 15.011719 184.964844 14.5625 187.183594 14.5625 C 189.390625 14.5625 191.523438 15.011719 193.476562 15.820312 L 193.484375 15.820312 C 195.511719 16.65625 197.324219 17.886719 198.835938 19.398438 C 200.347656 20.914062 201.574219 22.730469 202.410156 24.761719 L 202.410156 24.769531 C 203.214844 26.726562 203.664062 28.855469 203.664062 31.078125 C 203.664062 31.628906 203.636719 32.179688 203.582031 32.730469 Z M 71.308594 218.515625 Z M 89.972656 217.230469 C 90.53125 206.167969 74.664062 203.453125 71.53125 214.082031 C 71.347656 214.796875 71.234375 215.539062 71.199219 216.285156 C 71.164062 217.027344 71.199219 217.78125 71.308594 218.523438 C 73.371094 229.394531 89.421875 228.292969 89.972656 217.238281 Z M 177.992188 30.527344 C 177.957031 31.269531 177.992188 32.023438 178.101562 32.765625 C 178.550781 35.105469 179.824219 37.097656 181.59375 38.464844 C 183.363281 39.832031 185.617188 40.578125 187.996094 40.421875 C 190.378906 40.257812 192.515625 39.21875 194.082031 37.621094 C 195.648438 36.023438 196.65625 33.867188 196.773438 31.480469 C 196.894531 29.09375 196.113281 26.84375 194.714844 25.101562 C 193.3125 23.347656 191.296875 22.097656 188.949219 21.695312 C 186.59375 21.289062 184.277344 21.804688 182.382812 22.988281 C 180.484375 24.171875 179.007812 26.035156 178.332031 28.324219 C 178.148438 29.039062 178.039062 29.78125 178 30.527344 Z M 284.941406 216.035156 C 284.90625 216.78125 284.941406 217.53125 285.050781 218.277344 C 285.5 220.617188 286.773438 222.609375 288.542969 223.976562 C 290.308594 225.34375 292.5625 226.089844 294.945312 225.933594 C 297.328125 225.765625 299.464844 224.730469 301.03125 223.132812 C 302.597656 221.535156 303.605469 219.378906 303.722656 216.992188 C 303.84375 214.605469 303.0625 212.355469 301.660156 210.613281 C 300.261719 208.859375 298.246094 207.609375 295.898438 207.207031 C 293.542969 206.800781 291.226562 207.316406 289.328125 208.5 C 287.433594 209.683594 285.957031 211.546875 285.28125 213.832031 C 285.097656 214.550781 284.988281 215.292969 284.949219 216.035156 Z M 88.617188 89.273438 C 88.78125 90.039062 88.875 90.816406 88.875 91.617188 C 88.875 93.074219 88.578125 94.488281 88.039062 95.773438 C 87.488281 97.113281 86.683594 98.308594 85.683594 99.308594 C 84.769531 100.226562 83.6875 100.980469 82.476562 101.53125 C 82.175781 101.667969 81.875 101.785156 81.550781 101.898438 L 81.550781 200.203125 C 82.175781 200.238281 82.78125 200.320312 83.386719 200.421875 L 174.738281 41.890625 C 174.273438 41.359375 173.84375 40.789062 173.457031 40.210938 L 88.609375 89.292969 Z M 173.128906 156.175781 L 173.375 156.304688 L 173.382812 156.304688 C 173.925781 156.589844 174.4375 156.917969 174.914062 157.285156 L 230.800781 124.957031 C 230.675781 124.296875 230.609375 123.625 230.609375 122.964844 C 230.609375 121.515625 230.902344 120.109375 231.445312 118.816406 L 231.445312 118.804688 C 231.9375 117.605469 232.636719 116.519531 233.496094 115.59375 L 193.558594 46.285156 C 193.054688 46.5 192.542969 46.691406 192.019531 46.847656 L 192.011719 46.847656 C 190.847656 47.203125 189.648438 47.433594 188.417969 47.535156 L 173.136719 156.183594 Z M 178.953125 163.824219 C 179.09375 164.511719 179.15625 165.210938 179.15625 165.914062 L 179.15625 166.191406 L 280.625 207.214844 C 281.3125 206.1875 282.089844 205.269531 282.945312 204.460938 C 283.328125 204.101562 283.722656 203.753906 284.136719 203.433594 L 243.875 133.566406 C 243.105469 133.742188 242.300781 133.832031 241.484375 133.832031 C 240.027344 133.832031 238.617188 133.539062 237.335938 132.996094 C 236.410156 132.613281 235.558594 132.117188 234.796875 131.519531 L 178.972656 163.8125 Z M 176.25 173.316406 C 176.160156 173.414062 176.070312 173.515625 175.976562 173.609375 C 174.015625 175.574219 171.296875 176.792969 168.300781 176.792969 C 166.84375 176.792969 165.429688 176.5 164.148438 175.957031 C 163.039062 175.5 162.03125 174.875 161.160156 174.113281 L 96.195312 211.695312 C 96.332031 212.125 96.449219 212.558594 96.550781 213 L 96.550781 213.007812 C 96.632812 213.375 96.707031 213.734375 96.761719 214.101562 L 277.109375 214.101562 L 176.25 173.324219 Z M 157.535156 167.339844 C 157.46875 166.863281 157.433594 166.382812 157.433594 165.914062 C 157.433594 164.464844 157.726562 163.0625 158.265625 161.765625 L 158.265625 161.757812 C 158.816406 160.425781 159.621094 159.222656 160.621094 158.234375 C 161.59375 157.257812 162.757812 156.46875 164.058594 155.917969 C 164.515625 155.726562 164.980469 155.5625 165.46875 155.433594 L 180.742188 46.828125 L 90.449219 203.523438 C 90.714844 203.726562 90.960938 203.929688 91.21875 204.148438 C 91.574219 204.453125 91.914062 204.78125 92.253906 205.121094 L 157.542969 167.355469 Z M 241.46875 112.085938 C 242.925781 112.085938 244.335938 112.378906 245.617188 112.921875 C 246.957031 113.472656 248.144531 114.28125 249.144531 115.28125 C 250.132812 116.273438 250.941406 117.476562 251.5 118.816406 C 252.03125 120.109375 252.332031 121.515625 252.332031 122.972656 C 252.332031 124.433594 252.039062 125.847656 251.5 127.132812 C 251.167969 127.921875 250.757812 128.65625 250.273438 129.335938 L 291.132812 200.246094 C 291.765625 200.128906 292.40625 200.035156 293.058594 199.992188 L 293.058594 102.054688 C 292.683594 101.941406 292.308594 101.804688 291.949219 101.660156 C 290.601562 101.097656 289.414062 100.289062 288.421875 99.308594 C 287.433594 98.316406 286.636719 97.125 286.078125 95.773438 C 285.546875 94.480469 285.242188 93.074219 285.242188 91.617188 C 285.242188 90.734375 285.351562 89.863281 285.5625 89.019531 L 200.972656 40.082031 L 199.808594 41.753906 L 240.367188 112.140625 C 240.734375 112.105469 241.101562 112.085938 241.46875 112.085938 Z M 96.140625 221.8125 C 95.929688 222.453125 95.671875 223.097656 95.367188 223.730469 L 176.921875 270.902344 L 178.183594 269.636719 C 180.558594 267.257812 183.828125 265.789062 187.449219 265.789062 C 189.199219 265.789062 190.894531 266.148438 192.449219 266.789062 L 192.460938 266.789062 C 194.070312 267.460938 195.511719 268.433594 196.710938 269.636719 C 197.085938 270.011719 197.453125 270.425781 197.78125 270.855469 L 279.433594 223.628906 C 279.152344 223.03125 278.894531 222.425781 278.683594 221.8125 L 96.136719 221.8125 Z M 96.140625 221.8125 " clip-rule="nonzero"/></clipPath><linearGradient x1="15.769554" gradientTransform="matrix(0.916205, 0, 0, 0.917962, 64.016528, 14.54392)" y1="314.834975" x2="267.202692" gradientUnits="userSpaceOnUse" y2="-1.653079" id="d7b28b81e0"><stop stop-opacity="1" stop-color="rgb(74.023438%, 1.515198%, 80.296326%)" offset="0"/><stop stop-opacity="1" stop-color="rgb(73.553467%, 1.939392%, 80.380249%)" offset="0.00390625"/><stop stop-opacity="1" stop-color="rgb(73.083496%, 2.365112%, 80.464172%)" offset="0.0078125"/><stop stop-opacity="1" stop-color="rgb(72.612%, 2.790833%, 80.548096%)" offset="0.0117188"/><stop stop-opacity="1" stop-color="rgb(72.142029%, 3.216553%, 80.632019%)" offset="0.015625"/><stop stop-opacity="1" stop-color="rgb(71.672058%, 3.642273%, 80.714417%)" offset="0.0195313"/><stop stop-opacity="1" stop-color="rgb(71.202087%, 4.067993%, 80.79834%)" offset="0.0234375"/><stop stop-opacity="1" stop-color="rgb(70.730591%, 4.492188%, 80.882263%)" offset="0.0273438"/><stop stop-opacity="1" stop-color="rgb(70.26062%, 4.917908%, 80.966187%)" offset="0.03125"/><stop stop-opacity="1" stop-color="rgb(69.790649%, 5.343628%, 81.048584%)" offset="0.0351562"/><stop stop-opacity="1" stop-color="rgb(69.320679%, 5.769348%, 81.132507%)" offset="0.0390625"/><stop stop-opacity="1" stop-color="rgb(68.849182%, 6.193542%, 81.216431%)" offset="0.0429688"/><stop stop-opacity="1" stop-color="rgb(68.379211%, 6.619263%, 81.300354%)" offset="0.046875"/><stop stop-opacity="1" stop-color="rgb(67.909241%, 7.044983%, 81.382751%)" offset="0.0507812"/><stop stop-opacity="1" stop-color="rgb(67.43927%, 7.470703%, 81.466675%)" offset="0.0546875"/><stop stop-opacity="1" stop-color="rgb(66.967773%, 7.896423%, 81.550598%)" offset="0.0585938"/><stop stop-opacity="1" stop-color="rgb(66.497803%, 8.322144%, 81.634521%)" offset="0.0625"/><stop stop-opacity="1" stop-color="rgb(66.027832%, 8.746338%, 81.716919%)" offset="0.0664063"/><stop stop-opacity="1" stop-color="rgb(65.557861%, 9.172058%, 81.800842%)" offset="0.0703125"/><stop stop-opacity="1" stop-color="rgb(65.086365%, 9.597778%, 81.884766%)" offset="0.0742188"/><stop stop-opacity="1" stop-color="rgb(64.616394%, 10.023499%, 81.968689%)" offset="0.078125"/><stop stop-opacity="1" stop-color="rgb(64.146423%, 10.447693%, 82.052612%)" offset="0.0820313"/><stop stop-opacity="1" stop-color="rgb(63.676453%, 10.873413%, 82.136536%)" offset="0.0859375"/><stop stop-opacity="1" stop-color="rgb(63.206482%, 11.299133%, 82.218933%)" offset="0.0898438"/><stop stop-opacity="1" stop-color="rgb(62.736511%, 11.724854%, 82.302856%)" offset="0.09375"/><stop stop-opacity="1" stop-color="rgb(62.265015%, 12.150574%, 82.38678%)" offset="0.0976563"/><stop stop-opacity="1" stop-color="rgb(61.795044%, 12.576294%, 82.470703%)" offset="0.101563"/><stop stop-opacity="1" stop-color="rgb(61.325073%, 13.000488%, 82.553101%)" offset="0.105469"/><stop stop-opacity="1" stop-color="rgb(60.855103%, 13.426208%, 82.637024%)" offset="0.109375"/><stop stop-opacity="1" stop-color="rgb(60.383606%, 13.851929%, 82.720947%)" offset="0.113281"/><stop stop-opacity="1" stop-color="rgb(59.913635%, 14.277649%, 82.804871%)" offset="0.117188"/><stop stop-opacity="1" stop-color="rgb(59.443665%, 14.701843%, 82.887268%)" offset="0.121094"/><stop stop-opacity="1" stop-color="rgb(58.973694%, 15.127563%, 82.971191%)" offset="0.125"/><stop stop-opacity="1" stop-color="rgb(58.502197%, 15.553284%, 83.055115%)" offset="0.128906"/><stop stop-opacity="1" stop-color="rgb(58.032227%, 15.979004%, 83.139038%)" offset="0.132813"/><stop stop-opacity="1" stop-color="rgb(57.562256%, 16.404724%, 83.221436%)" offset="0.136719"/><stop stop-opacity="1" stop-color="rgb(57.092285%, 16.830444%, 83.305359%)" offset="0.140625"/><stop stop-opacity="1" stop-color="rgb(56.620789%, 17.254639%, 83.389282%)" offset="0.144531"/><stop stop-opacity="1" stop-color="rgb(56.150818%, 17.680359%, 83.473206%)" offset="0.148438"/><stop stop-opacity="1" stop-color="rgb(55.680847%, 18.106079%, 83.557129%)" offset="0.152344"/><stop stop-opacity="1" stop-color="rgb(55.210876%, 18.531799%, 83.641052%)" offset="0.15625"/><stop stop-opacity="1" stop-color="rgb(54.73938%, 18.955994%, 83.72345%)" offset="0.160156"/><stop stop-opacity="1" stop-color="rgb(54.269409%, 19.381714%, 83.807373%)" offset="0.164063"/><stop stop-opacity="1" stop-color="rgb(53.799438%, 19.807434%, 83.891296%)" offset="0.167969"/><stop stop-opacity="1" stop-color="rgb(53.329468%, 20.233154%, 83.97522%)" offset="0.171875"/><stop stop-opacity="1" stop-color="rgb(52.857971%, 20.657349%, 84.057617%)" offset="0.175781"/><stop stop-opacity="1" stop-color="rgb(52.388%, 21.083069%, 84.141541%)" offset="0.179688"/><stop stop-opacity="1" stop-color="rgb(51.91803%, 21.508789%, 84.225464%)" offset="0.183594"/><stop stop-opacity="1" stop-color="rgb(51.448059%, 21.934509%, 84.309387%)" offset="0.1875"/><stop stop-opacity="1" stop-color="rgb(50.978088%, 22.360229%, 84.391785%)" offset="0.191406"/><stop stop-opacity="1" stop-color="rgb(50.508118%, 22.78595%, 84.475708%)" offset="0.195313"/><stop stop-opacity="1" stop-color="rgb(50.036621%, 23.210144%, 84.559631%)" offset="0.199219"/><stop stop-opacity="1" stop-color="rgb(49.56665%, 23.635864%, 84.643555%)" offset="0.203125"/><stop stop-opacity="1" stop-color="rgb(49.09668%, 24.061584%, 84.725952%)" offset="0.207031"/><stop stop-opacity="1" stop-color="rgb(48.626709%, 24.487305%, 84.809875%)" offset="0.210938"/><stop stop-opacity="1" stop-color="rgb(48.155212%, 24.911499%, 84.893799%)" offset="0.214844"/><stop stop-opacity="1" stop-color="rgb(47.685242%, 25.337219%, 84.977722%)" offset="0.21875"/><stop stop-opacity="1" stop-color="rgb(47.215271%, 25.762939%, 85.061646%)" offset="0.222656"/><stop stop-opacity="1" stop-color="rgb(46.7453%, 26.18866%, 85.145569%)" offset="0.226563"/><stop stop-opacity="1" stop-color="rgb(46.273804%, 26.61438%, 85.227966%)" offset="0.230469"/><stop stop-opacity="1" stop-color="rgb(45.803833%, 27.0401%, 85.31189%)" offset="0.234375"/><stop stop-opacity="1" stop-color="rgb(45.333862%, 27.464294%, 85.395813%)" offset="0.238281"/><stop stop-opacity="1" stop-color="rgb(44.863892%, 27.890015%, 85.479736%)" offset="0.242188"/><stop stop-opacity="1" stop-color="rgb(44.392395%, 28.315735%, 85.562134%)" offset="0.246094"/><stop stop-opacity="1" stop-color="rgb(43.922424%, 28.741455%, 85.646057%)" offset="0.25"/><stop stop-opacity="1" stop-color="rgb(43.452454%, 29.165649%, 85.72998%)" offset="0.253906"/><stop stop-opacity="1" stop-color="rgb(42.982483%, 29.59137%, 85.813904%)" offset="0.257813"/><stop stop-opacity="1" stop-color="rgb(42.510986%, 30.01709%, 85.896301%)" offset="0.261719"/><stop stop-opacity="1" stop-color="rgb(42.041016%, 30.44281%, 85.980225%)" offset="0.265625"/><stop stop-opacity="1" stop-color="rgb(41.571045%, 30.86853%, 86.064148%)" offset="0.269531"/><stop stop-opacity="1" stop-color="rgb(41.101074%, 31.29425%, 86.148071%)" offset="0.273438"/><stop stop-opacity="1" stop-color="rgb(40.631104%, 31.718445%, 86.230469%)" offset="0.277344"/><stop stop-opacity="1" stop-color="rgb(40.161133%, 32.144165%, 86.314392%)" offset="0.28125"/><stop stop-opacity="1" stop-color="rgb(39.689636%, 32.569885%, 86.398315%)" offset="0.285156"/><stop stop-opacity="1" stop-color="rgb(39.219666%, 32.995605%, 86.482239%)" offset="0.289062"/><stop stop-opacity="1" stop-color="rgb(38.749695%, 33.4198%, 86.566162%)" offset="0.292969"/><stop stop-opacity="1" stop-color="rgb(38.279724%, 33.84552%, 86.650085%)" offset="0.296875"/><stop stop-opacity="1" stop-color="rgb(37.857056%, 34.22699%, 86.726379%)" offset="0.300781"/><stop stop-opacity="1" stop-color="rgb(37.435913%, 34.609985%, 86.802673%)" offset="0.304688"/><stop stop-opacity="1" stop-color="rgb(37.034607%, 34.97467%, 86.875916%)" offset="0.308594"/><stop stop-opacity="1" stop-color="rgb(36.633301%, 35.339355%, 86.950684%)" offset="0.3125"/><stop stop-opacity="1" stop-color="rgb(36.231995%, 35.702515%, 87.023926%)" offset="0.316406"/><stop stop-opacity="1" stop-color="rgb(35.832214%, 36.0672%, 87.098694%)" offset="0.320312"/><stop stop-opacity="1" stop-color="rgb(35.430908%, 36.430359%, 87.171936%)" offset="0.324219"/><stop stop-opacity="1" stop-color="rgb(35.029602%, 36.795044%, 87.246704%)" offset="0.328125"/><stop stop-opacity="1" stop-color="rgb(34.628296%, 37.158203%, 87.319946%)" offset="0.332031"/><stop stop-opacity="1" stop-color="rgb(34.22699%, 37.522888%, 87.394714%)" offset="0.335938"/><stop stop-opacity="1" stop-color="rgb(33.825684%, 37.887573%, 87.467957%)" offset="0.339844"/><stop stop-opacity="1" stop-color="rgb(33.425903%, 38.252258%, 87.541199%)" offset="0.34375"/><stop stop-opacity="1" stop-color="rgb(33.024597%, 38.615417%, 87.614441%)" offset="0.347656"/><stop stop-opacity="1" stop-color="rgb(32.623291%, 38.980103%, 87.689209%)" offset="0.351562"/><stop stop-opacity="1" stop-color="rgb(32.221985%, 39.343262%, 87.762451%)" offset="0.355469"/><stop stop-opacity="1" stop-color="rgb(31.822205%, 39.707947%, 87.837219%)" offset="0.359375"/><stop stop-opacity="1" stop-color="rgb(31.420898%, 40.071106%, 87.910461%)" offset="0.363281"/><stop stop-opacity="1" stop-color="rgb(31.019592%, 40.435791%, 87.985229%)" offset="0.367188"/><stop stop-opacity="1" stop-color="rgb(30.618286%, 40.79895%, 88.058472%)" offset="0.371094"/><stop stop-opacity="1" stop-color="rgb(30.21698%, 41.163635%, 88.13324%)" offset="0.375"/><stop stop-opacity="1" stop-color="rgb(29.815674%, 41.52832%, 88.206482%)" offset="0.378906"/><stop stop-opacity="1" stop-color="rgb(29.415894%, 41.893005%, 88.279724%)" offset="0.382812"/><stop stop-opacity="1" stop-color="rgb(29.014587%, 42.256165%, 88.352966%)" offset="0.386719"/><stop stop-opacity="1" stop-color="rgb(28.613281%, 42.62085%, 88.427734%)" offset="0.390625"/><stop stop-opacity="1" stop-color="rgb(28.211975%, 42.984009%, 88.500977%)" offset="0.394531"/><stop stop-opacity="1" stop-color="rgb(27.810669%, 43.348694%, 88.575745%)" offset="0.398438"/><stop stop-opacity="1" stop-color="rgb(27.409363%, 43.711853%, 88.648987%)" offset="0.402344"/><stop stop-opacity="1" stop-color="rgb(27.009583%, 44.076538%, 88.723755%)" offset="0.40625"/><stop stop-opacity="1" stop-color="rgb(26.608276%, 44.441223%, 88.796997%)" offset="0.410156"/><stop stop-opacity="1" stop-color="rgb(26.20697%, 44.805908%, 88.871765%)" offset="0.414062"/><stop stop-opacity="1" stop-color="rgb(25.805664%, 45.169067%, 88.945007%)" offset="0.417969"/><stop stop-opacity="1" stop-color="rgb(25.404358%, 45.533752%, 89.019775%)" offset="0.421875"/><stop stop-opacity="1" stop-color="rgb(25.003052%, 45.896912%, 89.093018%)" offset="0.425781"/><stop stop-opacity="1" stop-color="rgb(24.603271%, 46.261597%, 89.16626%)" offset="0.429688"/><stop stop-opacity="1" stop-color="rgb(24.201965%, 46.624756%, 89.239502%)" offset="0.433594"/><stop stop-opacity="1" stop-color="rgb(23.800659%, 46.989441%, 89.31427%)" offset="0.4375"/><stop stop-opacity="1" stop-color="rgb(23.399353%, 47.3526%, 89.387512%)" offset="0.441406"/><stop stop-opacity="1" stop-color="rgb(22.999573%, 47.717285%, 89.46228%)" offset="0.445312"/><stop stop-opacity="1" stop-color="rgb(22.598267%, 48.08197%, 89.535522%)" offset="0.449219"/><stop stop-opacity="1" stop-color="rgb(22.19696%, 48.446655%, 89.610291%)" offset="0.453125"/><stop stop-opacity="1" stop-color="rgb(21.795654%, 48.809814%, 89.683533%)" offset="0.457031"/><stop stop-opacity="1" stop-color="rgb(21.394348%, 49.1745%, 89.758301%)" offset="0.460938"/><stop stop-opacity="1" stop-color="rgb(20.993042%, 49.537659%, 89.831543%)" offset="0.464844"/><stop stop-opacity="1" stop-color="rgb(20.593262%, 49.902344%, 89.906311%)" offset="0.46875"/><stop stop-opacity="1" stop-color="rgb(20.191956%, 50.265503%, 89.979553%)" offset="0.472656"/><stop stop-opacity="1" stop-color="rgb(19.790649%, 50.630188%, 90.052795%)" offset="0.476562"/><stop stop-opacity="1" stop-color="rgb(19.389343%, 50.994873%, 90.126038%)" offset="0.480469"/><stop stop-opacity="1" stop-color="rgb(18.988037%, 51.359558%, 90.200806%)" offset="0.484375"/><stop stop-opacity="1" stop-color="rgb(18.586731%, 51.722717%, 90.274048%)" offset="0.488281"/><stop stop-opacity="1" stop-color="rgb(18.186951%, 52.087402%, 90.348816%)" offset="0.492188"/><stop stop-opacity="1" stop-color="rgb(17.785645%, 52.450562%, 90.422058%)" offset="0.496094"/><stop stop-opacity="1" stop-color="rgb(17.384338%, 52.815247%, 90.496826%)" offset="0.5"/><stop stop-opacity="1" stop-color="rgb(16.983032%, 53.178406%, 90.570068%)" offset="0.503906"/><stop stop-opacity="1" stop-color="rgb(16.581726%, 53.543091%, 90.644836%)" offset="0.507812"/><stop stop-opacity="1" stop-color="rgb(16.18042%, 53.90625%, 90.718079%)" offset="0.511719"/><stop stop-opacity="1" stop-color="rgb(15.78064%, 54.270935%, 90.792847%)" offset="0.515625"/><stop stop-opacity="1" stop-color="rgb(15.379333%, 54.63562%, 90.866089%)" offset="0.519531"/><stop stop-opacity="1" stop-color="rgb(14.978027%, 55.000305%, 90.939331%)" offset="0.523438"/><stop stop-opacity="1" stop-color="rgb(14.576721%, 55.363464%, 91.012573%)" offset="0.527344"/><stop stop-opacity="1" stop-color="rgb(14.176941%, 55.728149%, 91.087341%)" offset="0.53125"/><stop stop-opacity="1" stop-color="rgb(13.775635%, 56.091309%, 91.160583%)" offset="0.535156"/><stop stop-opacity="1" stop-color="rgb(13.374329%, 56.455994%, 91.235352%)" offset="0.539062"/><stop stop-opacity="1" stop-color="rgb(12.973022%, 56.819153%, 91.308594%)" offset="0.542969"/><stop stop-opacity="1" stop-color="rgb(12.571716%, 57.183838%, 91.383362%)" offset="0.546875"/><stop stop-opacity="1" stop-color="rgb(12.17041%, 57.548523%, 91.456604%)" offset="0.550781"/><stop stop-opacity="1" stop-color="rgb(11.77063%, 57.913208%, 91.531372%)" offset="0.554688"/><stop stop-opacity="1" stop-color="rgb(11.369324%, 58.276367%, 91.604614%)" offset="0.558594"/><stop stop-opacity="1" stop-color="rgb(10.968018%, 58.641052%, 91.679382%)" offset="0.5625"/><stop stop-opacity="1" stop-color="rgb(10.566711%, 59.004211%, 91.752625%)" offset="0.566406"/><stop stop-opacity="1" stop-color="rgb(10.165405%, 59.368896%, 91.825867%)" offset="0.570312"/><stop stop-opacity="1" stop-color="rgb(9.764099%, 59.732056%, 91.899109%)" offset="0.574219"/><stop stop-opacity="1" stop-color="rgb(9.364319%, 60.096741%, 91.973877%)" offset="0.578125"/><stop stop-opacity="1" stop-color="rgb(8.963013%, 60.4599%, 92.047119%)" offset="0.582031"/><stop stop-opacity="1" stop-color="rgb(8.561707%, 60.824585%, 92.121887%)" offset="0.585938"/><stop stop-opacity="1" stop-color="rgb(8.1604%, 61.18927%, 92.195129%)" offset="0.589844"/><stop stop-opacity="1" stop-color="rgb(7.76062%, 61.553955%, 92.269897%)" offset="0.59375"/><stop stop-opacity="1" stop-color="rgb(7.359314%, 61.917114%, 92.34314%)" offset="0.597656"/><stop stop-opacity="1" stop-color="rgb(6.958008%, 62.281799%, 92.417908%)" offset="0.601562"/><stop stop-opacity="1" stop-color="rgb(6.556702%, 62.644958%, 92.49115%)" offset="0.605469"/><stop stop-opacity="1" stop-color="rgb(6.155396%, 63.009644%, 92.564392%)" offset="0.609375"/><stop stop-opacity="1" stop-color="rgb(5.754089%, 63.372803%, 92.637634%)" offset="0.613281"/><stop stop-opacity="1" stop-color="rgb(5.354309%, 63.737488%, 92.712402%)" offset="0.617188"/><stop stop-opacity="1" stop-color="rgb(4.953003%, 64.102173%, 92.785645%)" offset="0.621094"/><stop stop-opacity="1" stop-color="rgb(4.551697%, 64.466858%, 92.860413%)" offset="0.625"/><stop stop-opacity="1" stop-color="rgb(4.150391%, 64.830017%, 92.933655%)" offset="0.628906"/><stop stop-opacity="1" stop-color="rgb(3.749084%, 65.194702%, 93.008423%)" offset="0.632812"/><stop stop-opacity="1" stop-color="rgb(3.347778%, 65.557861%, 93.081665%)" offset="0.636719"/><stop stop-opacity="1" stop-color="rgb(2.947998%, 65.922546%, 93.156433%)" offset="0.640625"/><stop stop-opacity="1" stop-color="rgb(2.546692%, 66.285706%, 93.229675%)" offset="0.644531"/><stop stop-opacity="1" stop-color="rgb(2.145386%, 66.650391%, 93.304443%)" offset="0.648438"/><stop stop-opacity="1" stop-color="rgb(1.74408%, 67.01355%, 93.377686%)" offset="0.652344"/><stop stop-opacity="1" stop-color="rgb(1.342773%, 67.378235%, 93.450928%)" offset="0.65625"/><stop stop-opacity="1" stop-color="rgb(0.941467%, 67.74292%, 93.52417%)" offset="0.660156"/><stop stop-opacity="1" stop-color="rgb(0.541687%, 68.107605%, 93.598938%)" offset="0.664062"/><stop stop-opacity="1" stop-color="rgb(0.270081%, 68.466187%, 93.670654%)" offset="0.667969"/><stop stop-opacity="1" stop-color="rgb(0%, 68.824768%, 93.743896%)" offset="0.671875"/><stop stop-opacity="1" stop-color="rgb(0%, 69.171143%, 93.814087%)" offset="0.675781"/><stop stop-opacity="1" stop-color="rgb(0%, 69.517517%, 93.884277%)" offset="0.679688"/><stop stop-opacity="1" stop-color="rgb(0%, 69.863892%, 93.952942%)" offset="0.683594"/><stop stop-opacity="1" stop-color="rgb(0%, 70.211792%, 94.023132%)" offset="0.6875"/><stop stop-opacity="1" stop-color="rgb(0%, 70.558167%, 94.091797%)" offset="0.691406"/><stop stop-opacity="1" stop-color="rgb(0%, 70.906067%, 94.161987%)" offset="0.695312"/><stop stop-opacity="1" stop-color="rgb(0%, 71.252441%, 94.230652%)" offset="0.699219"/><stop stop-opacity="1" stop-color="rgb(0%, 71.598816%, 94.300842%)" offset="0.703125"/><stop stop-opacity="1" stop-color="rgb(0%, 71.94519%, 94.369507%)" offset="0.707031"/><stop stop-opacity="1" stop-color="rgb(0%, 72.293091%, 94.439697%)" offset="0.710938"/><stop stop-opacity="1" stop-color="rgb(0%, 72.639465%, 94.509888%)" offset="0.714844"/><stop stop-opacity="1" stop-color="rgb(0%, 72.987366%, 94.580078%)" offset="0.71875"/><stop stop-opacity="1" stop-color="rgb(0%, 73.33374%, 94.648743%)" offset="0.722656"/><stop stop-opacity="1" stop-color="rgb(0%, 73.681641%, 94.718933%)" offset="0.726562"/><stop stop-opacity="1" stop-color="rgb(0%, 74.028015%, 94.787598%)" offset="0.730469"/><stop stop-opacity="1" stop-color="rgb(0%, 74.37439%, 94.857788%)" offset="0.734375"/><stop stop-opacity="1" stop-color="rgb(0%, 74.720764%, 94.926453%)" offset="0.738281"/><stop stop-opacity="1" stop-color="rgb(0%, 75.068665%, 94.996643%)" offset="0.742188"/><stop stop-opacity="1" stop-color="rgb(0%, 75.415039%, 95.066833%)" offset="0.746094"/><stop stop-opacity="1" stop-color="rgb(0%, 75.762939%, 95.137024%)" offset="0.75"/><stop stop-opacity="1" stop-color="rgb(0%, 76.109314%, 95.205688%)" offset="0.753906"/><stop stop-opacity="1" stop-color="rgb(0%, 76.455688%, 95.275879%)" offset="0.757812"/><stop stop-opacity="1" stop-color="rgb(0%, 76.802063%, 95.344543%)" offset="0.761719"/><stop stop-opacity="1" stop-color="rgb(0%, 77.149963%, 95.414734%)" offset="0.765625"/><stop stop-opacity="1" stop-color="rgb(0%, 77.496338%, 95.483398%)" offset="0.769531"/><stop stop-opacity="1" stop-color="rgb(0%, 77.844238%, 95.553589%)" offset="0.773438"/><stop stop-opacity="1" stop-color="rgb(0%, 78.190613%, 95.623779%)" offset="0.777344"/><stop stop-opacity="1" stop-color="rgb(0%, 78.538513%, 95.69397%)" offset="0.78125"/><stop stop-opacity="1" stop-color="rgb(0%, 78.884888%, 95.762634%)" offset="0.785156"/><stop stop-opacity="1" stop-color="rgb(0%, 79.231262%, 95.832825%)" offset="0.789062"/><stop stop-opacity="1" stop-color="rgb(0%, 79.577637%, 95.901489%)" offset="0.792969"/><stop stop-opacity="1" stop-color="rgb(0%, 79.925537%, 95.97168%)" offset="0.796875"/><stop stop-opacity="1" stop-color="rgb(0%, 80.271912%, 96.040344%)" offset="0.800781"/><stop stop-opacity="1" stop-color="rgb(0%, 80.619812%, 96.110535%)" offset="0.804688"/><stop stop-opacity="1" stop-color="rgb(0%, 80.966187%, 96.179199%)" offset="0.808594"/><stop stop-opacity="1" stop-color="rgb(0%, 81.312561%, 96.24939%)" offset="0.8125"/><stop stop-opacity="1" stop-color="rgb(0%, 81.658936%, 96.31958%)" offset="0.816406"/><stop stop-opacity="1" stop-color="rgb(0%, 82.006836%, 96.389771%)" offset="0.820312"/><stop stop-opacity="1" stop-color="rgb(0%, 82.35321%, 96.458435%)" offset="0.824219"/><stop stop-opacity="1" stop-color="rgb(0%, 82.701111%, 96.528625%)" offset="0.828125"/><stop stop-opacity="1" stop-color="rgb(0%, 83.047485%, 96.59729%)" offset="0.832031"/><stop stop-opacity="1" stop-color="rgb(0%, 83.395386%, 96.66748%)" offset="0.835938"/><stop stop-opacity="1" stop-color="rgb(0%, 83.74176%, 96.736145%)" offset="0.839844"/><stop stop-opacity="1" stop-color="rgb(0%, 84.088135%, 96.806335%)" offset="0.84375"/><stop stop-opacity="1" stop-color="rgb(0%, 84.434509%, 96.876526%)" offset="0.847656"/><stop stop-opacity="1" stop-color="rgb(0%, 84.78241%, 96.946716%)" offset="0.851562"/><stop stop-opacity="1" stop-color="rgb(0%, 85.128784%, 97.015381%)" offset="0.855469"/><stop stop-opacity="1" stop-color="rgb(0%, 85.476685%, 97.085571%)" offset="0.859375"/><stop stop-opacity="1" stop-color="rgb(0%, 85.823059%, 97.154236%)" offset="0.863281"/><stop stop-opacity="1" stop-color="rgb(0%, 86.170959%, 97.224426%)" offset="0.867188"/><stop stop-opacity="1" stop-color="rgb(0%, 86.517334%, 97.293091%)" offset="0.871094"/><stop stop-opacity="1" stop-color="rgb(0%, 86.863708%, 97.363281%)" offset="0.875"/><stop stop-opacity="1" stop-color="rgb(0%, 87.210083%, 97.433472%)" offset="0.878906"/><stop stop-opacity="1" stop-color="rgb(0%, 87.557983%, 97.503662%)" offset="0.882812"/><stop stop-opacity="1" stop-color="rgb(0%, 87.904358%, 97.572327%)" offset="0.886719"/><stop stop-opacity="1" stop-color="rgb(0%, 88.252258%, 97.642517%)" offset="0.890625"/><stop stop-opacity="1" stop-color="rgb(0%, 88.598633%, 97.711182%)" offset="0.894531"/><stop stop-opacity="1" stop-color="rgb(0%, 88.945007%, 97.781372%)" offset="0.898438"/><stop stop-opacity="1" stop-color="rgb(0%, 89.291382%, 97.850037%)" offset="0.902344"/><stop stop-opacity="1" stop-color="rgb(0%, 89.639282%, 97.920227%)" offset="0.90625"/><stop stop-opacity="1" stop-color="rgb(0%, 89.985657%, 97.990417%)" offset="0.910156"/><stop stop-opacity="1" stop-color="rgb(0%, 90.333557%, 98.060608%)" offset="0.914062"/><stop stop-opacity="1" stop-color="rgb(0%, 90.679932%, 98.129272%)" offset="0.917969"/><stop stop-opacity="1" stop-color="rgb(0%, 91.027832%, 98.199463%)" offset="0.921875"/><stop stop-opacity="1" stop-color="rgb(0%, 91.374207%, 98.268127%)" offset="0.925781"/><stop stop-opacity="1" stop-color="rgb(0%, 91.720581%, 98.338318%)" offset="0.929688"/><stop stop-opacity="1" stop-color="rgb(0%, 92.066956%, 98.406982%)" offset="0.933594"/><stop stop-opacity="1" stop-color="rgb(0%, 92.414856%, 98.477173%)" offset="0.9375"/><stop stop-opacity="1" stop-color="rgb(0%, 92.76123%, 98.545837%)" offset="0.941406"/><stop stop-opacity="1" stop-color="rgb(0%, 93.109131%, 98.616028%)" offset="0.945312"/><stop stop-opacity="1" stop-color="rgb(0%, 93.455505%, 98.686218%)" offset="0.949219"/><stop stop-opacity="1" stop-color="rgb(0%, 93.80188%, 98.756409%)" offset="0.953125"/><stop stop-opacity="1" stop-color="rgb(0%, 94.148254%, 98.825073%)" offset="0.957031"/><stop stop-opacity="1" stop-color="rgb(0%, 94.496155%, 98.895264%)" offset="0.960938"/><stop stop-opacity="1" stop-color="rgb(0%, 94.842529%, 98.963928%)" offset="0.964844"/><stop stop-opacity="1" stop-color="rgb(0%, 95.19043%, 99.034119%)" offset="0.96875"/><stop stop-opacity="1" stop-color="rgb(0%, 95.536804%, 99.102783%)" offset="0.972656"/><stop stop-opacity="1" stop-color="rgb(0%, 95.884705%, 99.172974%)" offset="0.976562"/><stop stop-opacity="1" stop-color="rgb(0%, 96.231079%, 99.243164%)" offset="0.980469"/><stop stop-opacity="1" stop-color="rgb(0%, 96.577454%, 99.313354%)" offset="0.984375"/><stop stop-opacity="1" stop-color="rgb(0%, 96.923828%, 99.382019%)" offset="0.988281"/><stop stop-opacity="1" stop-color="rgb(0%, 97.271729%, 99.452209%)" offset="0.992188"/><stop stop-opacity="1" stop-color="rgb(0%, 97.618103%, 99.520874%)" offset="0.996094"/><stop stop-opacity="1" stop-color="rgb(0%, 97.966003%, 99.591064%)" offset="1"/></linearGradient></defs><g clip-path="url(#eb781ccddc)"><g clip-path="url(#cd899d5762)"><path fill="url(#d7b28b81e0)" d="M 64.007812 14.5625 L 64.007812 292.042969 L 310.757812 292.042969 L 310.757812 14.5625 Z M 64.007812 14.5625 " fill-rule="nonzero"/></g></g><g fill="#c100cc" fill-opacity="1"><g transform="translate(31.024236, 212.146685)"><g><path d="M 13.09375 1.859375 L 3.671875 4.515625 L 2.375 2.921875 L 6.90625 -5.75 L 8.3125 -4.015625 L 5.046875 2.15625 L 11.78125 0.25 Z M 13.09375 1.859375 "/></g></g></g><g fill="#c100cc" fill-opacity="1"><g transform="translate(38.067058, 220.809732)"><g><path d="M 7.5 3.8125 C 7.476562 3.820312 7.332031 3.914062 7.0625 4.09375 L 3.78125 0.046875 C 3.5 0.390625 3.367188 0.773438 3.390625 1.203125 C 3.421875 1.640625 3.601562 2.0625 3.9375 2.46875 C 4.15625 2.738281 4.394531 2.945312 4.65625 3.09375 C 4.925781 3.238281 5.222656 3.332031 5.546875 3.375 L 5.328125 4.953125 C 4.335938 4.910156 3.445312 4.40625 2.65625 3.4375 C 2.175781 2.832031 1.863281 2.203125 1.71875 1.546875 C 1.570312 0.890625 1.601562 0.265625 1.8125 -0.328125 C 2.019531 -0.921875 2.390625 -1.429688 2.921875 -1.859375 C 3.453125 -2.285156 4.03125 -2.546875 4.65625 -2.640625 C 5.289062 -2.734375 5.898438 -2.660156 6.484375 -2.421875 C 7.066406 -2.179688 7.578125 -1.789062 8.015625 -1.25 C 8.441406 -0.71875 8.710938 -0.148438 8.828125 0.453125 C 8.953125 1.066406 8.898438 1.664062 8.671875 2.25 C 8.441406 2.832031 8.050781 3.351562 7.5 3.8125 Z M 6.84375 -0.265625 C 6.550781 -0.617188 6.207031 -0.835938 5.8125 -0.921875 C 5.425781 -1.003906 5.039062 -0.925781 4.65625 -0.6875 L 6.796875 1.953125 C 7.097656 1.617188 7.25 1.25 7.25 0.84375 C 7.25 0.445312 7.113281 0.078125 6.84375 -0.265625 Z M 6.84375 -0.265625 "/></g></g></g><g fill="#c100cc" fill-opacity="1"><g transform="translate(44.178935, 228.327666)"><g><path d="M 6.421875 -1.59375 C 6.835938 -1.613281 7.238281 -1.519531 7.625 -1.3125 C 8.019531 -1.101562 8.382812 -0.796875 8.71875 -0.390625 L 7.28125 0.78125 C 7.164062 0.601562 7.082031 0.488281 7.03125 0.4375 C 6.675781 -0.0078125 6.265625 -0.257812 5.796875 -0.3125 C 5.335938 -0.363281 4.863281 -0.191406 4.375 0.203125 L 1.84375 2.265625 L 0.578125 0.71875 L 5.9375 -3.640625 L 7.140625 -2.171875 Z M 6.421875 -1.59375 "/></g></g></g><g fill="#c100cc" fill-opacity="1"><g transform="translate(48.671775, 233.854098)"><g><path d="M 3.640625 3.96875 C 3.398438 3.90625 3.160156 3.78125 2.921875 3.59375 C 2.691406 3.414062 2.476562 3.207031 2.28125 2.96875 C 1.769531 2.332031 1.53125 1.707031 1.5625 1.09375 C 1.601562 0.476562 1.941406 -0.0820312 2.578125 -0.59375 L 4.765625 -2.375 L 4.09375 -3.203125 L 5.296875 -4.1875 L 5.96875 -3.359375 L 7.265625 -4.40625 L 8.53125 -2.84375 L 7.234375 -1.796875 L 8.3125 -0.46875 L 7.109375 0.515625 L 6.03125 -0.8125 L 3.859375 0.953125 C 3.640625 1.140625 3.515625 1.335938 3.484375 1.546875 C 3.453125 1.765625 3.523438 1.976562 3.703125 2.1875 C 3.898438 2.425781 4.140625 2.582031 4.421875 2.65625 Z M 3.640625 3.96875 "/></g></g></g><g fill="#c100cc" fill-opacity="1"><g transform="translate(53.196987, 239.42035)"><g><path d="M 7.5 3.8125 C 7.476562 3.820312 7.332031 3.914062 7.0625 4.09375 L 3.78125 0.046875 C 3.5 0.390625 3.367188 0.773438 3.390625 1.203125 C 3.421875 1.640625 3.601562 2.0625 3.9375 2.46875 C 4.15625 2.738281 4.394531 2.945312 4.65625 3.09375 C 4.925781 3.238281 5.222656 3.332031 5.546875 3.375 L 5.328125 4.953125 C 4.335938 4.910156 3.445312 4.40625 2.65625 3.4375 C 2.175781 2.832031 1.863281 2.203125 1.71875 1.546875 C 1.570312 0.890625 1.601562 0.265625 1.8125 -0.328125 C 2.019531 -0.921875 2.390625 -1.429688 2.921875 -1.859375 C 3.453125 -2.285156 4.03125 -2.546875 4.65625 -2.640625 C 5.289062 -2.734375 5.898438 -2.660156 6.484375 -2.421875 C 7.066406 -2.179688 7.578125 -1.789062 8.015625 -1.25 C 8.441406 -0.71875 8.710938 -0.148438 8.828125 0.453125 C 8.953125 1.066406 8.898438 1.664062 8.671875 2.25 C 8.441406 2.832031 8.050781 3.351562 7.5 3.8125 Z M 6.84375 -0.265625 C 6.550781 -0.617188 6.207031 -0.835938 5.8125 -0.921875 C 5.425781 -1.003906 5.039062 -0.925781 4.65625 -0.6875 L 6.796875 1.953125 C 7.097656 1.617188 7.25 1.25 7.25 0.84375 C 7.25 0.445312 7.113281 0.078125 6.84375 -0.265625 Z M 6.84375 -0.265625 "/></g></g></g><g fill="#c100cc" fill-opacity="1"><g transform="translate(59.308863, 246.938283)"><g><path d="M 3.34375 4.125 L 4.03125 1.625 L 1.40625 1.734375 L 0.03125 0.03125 L 4.390625 -0.09375 L 5.453125 -4.25 L 6.875 -2.5 L 6.21875 -0.09375 L 8.734375 -0.21875 L 10.078125 1.453125 L 5.828125 1.578125 L 4.78125 5.875 Z M 3.34375 4.125 "/></g></g></g><g fill="#c100cc" fill-opacity="1"><g transform="translate(161.265422, 303.319196)"><g><path d="M 9.703125 -8.984375 L 5.8125 0 L 3.765625 0 L -0.109375 -8.984375 L 2.125 -8.984375 L 4.859375 -2.5625 L 7.625 -8.984375 Z M 9.703125 -8.984375 "/></g></g></g><g fill="#c100cc" fill-opacity="1"><g transform="translate(172.430086, 303.319196)"><g><path d="M 7.6875 -3.421875 C 7.6875 -3.398438 7.671875 -3.222656 7.640625 -2.890625 L 2.421875 -2.890625 C 2.515625 -2.460938 2.738281 -2.125 3.09375 -1.875 C 3.445312 -1.625 3.882812 -1.5 4.40625 -1.5 C 4.757812 -1.5 5.070312 -1.550781 5.34375 -1.65625 C 5.625 -1.769531 5.882812 -1.941406 6.125 -2.171875 L 7.203125 -1.015625 C 6.546875 -0.265625 5.59375 0.109375 4.34375 0.109375 C 3.570312 0.109375 2.882812 -0.0390625 2.28125 -0.34375 C 1.6875 -0.65625 1.222656 -1.078125 0.890625 -1.609375 C 0.566406 -2.148438 0.40625 -2.765625 0.40625 -3.453125 C 0.40625 -4.128906 0.566406 -4.738281 0.890625 -5.28125 C 1.210938 -5.820312 1.648438 -6.242188 2.203125 -6.546875 C 2.765625 -6.847656 3.394531 -7 4.09375 -7 C 4.769531 -7 5.378906 -6.851562 5.921875 -6.5625 C 6.472656 -6.269531 6.90625 -5.851562 7.21875 -5.3125 C 7.53125 -4.769531 7.6875 -4.140625 7.6875 -3.421875 Z M 4.109375 -5.484375 C 3.648438 -5.484375 3.265625 -5.351562 2.953125 -5.09375 C 2.648438 -4.84375 2.46875 -4.492188 2.40625 -4.046875 L 5.796875 -4.046875 C 5.734375 -4.484375 5.546875 -4.832031 5.234375 -5.09375 C 4.921875 -5.351562 4.546875 -5.484375 4.109375 -5.484375 Z M 4.109375 -5.484375 "/></g></g></g><g fill="#c100cc" fill-opacity="1"><g transform="translate(182.118964, 303.319196)"><g><path d="M 2.828125 -5.984375 C 3.066406 -6.316406 3.390625 -6.566406 3.796875 -6.734375 C 4.203125 -6.910156 4.671875 -7 5.203125 -7 L 5.203125 -5.15625 C 4.984375 -5.175781 4.835938 -5.1875 4.765625 -5.1875 C 4.191406 -5.1875 3.738281 -5.023438 3.40625 -4.703125 C 3.082031 -4.378906 2.921875 -3.898438 2.921875 -3.265625 L 2.921875 0 L 0.921875 0 L 0.921875 -6.90625 L 2.828125 -6.90625 Z M 2.828125 -5.984375 "/></g></g></g><g fill="#c100cc" fill-opacity="1"><g transform="translate(189.241258, 303.319196)"><g><path d="M 5.375 -0.328125 C 5.175781 -0.179688 4.929688 -0.0703125 4.640625 0 C 4.359375 0.0703125 4.0625 0.109375 3.75 0.109375 C 2.925781 0.109375 2.289062 -0.0976562 1.84375 -0.515625 C 1.394531 -0.941406 1.171875 -1.5625 1.171875 -2.375 L 1.171875 -5.203125 L 0.109375 -5.203125 L 0.109375 -6.75 L 1.171875 -6.75 L 1.171875 -8.421875 L 3.171875 -8.421875 L 3.171875 -6.75 L 4.890625 -6.75 L 4.890625 -5.203125 L 3.171875 -5.203125 L 3.171875 -2.40625 C 3.171875 -2.113281 3.242188 -1.882812 3.390625 -1.71875 C 3.546875 -1.5625 3.757812 -1.484375 4.03125 -1.484375 C 4.34375 -1.484375 4.613281 -1.570312 4.84375 -1.75 Z M 5.375 -0.328125 "/></g></g></g><g fill="#c100cc" fill-opacity="1"><g transform="translate(196.414869, 303.319196)"><g><path d="M 7.6875 -3.421875 C 7.6875 -3.398438 7.671875 -3.222656 7.640625 -2.890625 L 2.421875 -2.890625 C 2.515625 -2.460938 2.738281 -2.125 3.09375 -1.875 C 3.445312 -1.625 3.882812 -1.5 4.40625 -1.5 C 4.757812 -1.5 5.070312 -1.550781 5.34375 -1.65625 C 5.625 -1.769531 5.882812 -1.941406 6.125 -2.171875 L 7.203125 -1.015625 C 6.546875 -0.265625 5.59375 0.109375 4.34375 0.109375 C 3.570312 0.109375 2.882812 -0.0390625 2.28125 -0.34375 C 1.6875 -0.65625 1.222656 -1.078125 0.890625 -1.609375 C 0.566406 -2.148438 0.40625 -2.765625 0.40625 -3.453125 C 0.40625 -4.128906 0.566406 -4.738281 0.890625 -5.28125 C 1.210938 -5.820312 1.648438 -6.242188 2.203125 -6.546875 C 2.765625 -6.847656 3.394531 -7 4.09375 -7 C 4.769531 -7 5.378906 -6.851562 5.921875 -6.5625 C 6.472656 -6.269531 6.90625 -5.851562 7.21875 -5.3125 C 7.53125 -4.769531 7.6875 -4.140625 7.6875 -3.421875 Z M 4.109375 -5.484375 C 3.648438 -5.484375 3.265625 -5.351562 2.953125 -5.09375 C 2.648438 -4.84375 2.46875 -4.492188 2.40625 -4.046875 L 5.796875 -4.046875 C 5.734375 -4.484375 5.546875 -4.832031 5.234375 -5.09375 C 4.921875 -5.351562 4.546875 -5.484375 4.109375 -5.484375 Z M 4.109375 -5.484375 "/></g></g></g><g fill="#c100cc" fill-opacity="1"><g transform="translate(206.103747, 303.319196)"><g><path d="M 5.3125 0 L 3.796875 -2.109375 L 2.234375 0 L 0.046875 0 L 2.703125 -3.46875 L 0.140625 -6.90625 L 2.390625 -6.90625 L 3.84375 -4.890625 L 5.34375 -6.90625 L 7.484375 -6.90625 L 4.90625 -3.53125 L 7.578125 0 Z M 5.3125 0 "/></g></g></g><g fill="#00afef" fill-opacity="1"><g transform="translate(46.68186, 65.62545)"><g><path d="M 8.984375 9.703125 L 0 5.8125 L 0 3.765625 L 8.984375 -0.109375 L 8.984375 2.125 L 2.5625 4.859375 L 8.984375 7.625 Z M 8.984375 9.703125 "/></g></g></g><g fill="#00afef" fill-opacity="1"><g transform="translate(46.68186, 76.790114)"><g><path d="M 3.421875 7.6875 C 3.398438 7.6875 3.222656 7.671875 2.890625 7.640625 L 2.890625 2.421875 C 2.460938 2.515625 2.125 2.738281 1.875 3.09375 C 1.625 3.445312 1.5 3.882812 1.5 4.40625 C 1.5 4.757812 1.550781 5.070312 1.65625 5.34375 C 1.769531 5.625 1.941406 5.882812 2.171875 6.125 L 1.015625 7.203125 C 0.265625 6.546875 -0.109375 5.59375 -0.109375 4.34375 C -0.109375 3.570312 0.0390625 2.882812 0.34375 2.28125 C 0.65625 1.6875 1.078125 1.222656 1.609375 0.890625 C 2.148438 0.566406 2.765625 0.40625 3.453125 0.40625 C 4.128906 0.40625 4.738281 0.566406 5.28125 0.890625 C 5.820312 1.210938 6.242188 1.648438 6.546875 2.203125 C 6.847656 2.765625 7 3.394531 7 4.09375 C 7 4.769531 6.851562 5.378906 6.5625 5.921875 C 6.269531 6.472656 5.851562 6.90625 5.3125 7.21875 C 4.769531 7.53125 4.140625 7.6875 3.421875 7.6875 Z M 5.484375 4.109375 C 5.484375 3.648438 5.351562 3.265625 5.09375 2.953125 C 4.84375 2.648438 4.492188 2.46875 4.046875 2.40625 L 4.046875 5.796875 C 4.484375 5.734375 4.832031 5.546875 5.09375 5.234375 C 5.351562 4.921875 5.484375 4.546875 5.484375 4.109375 Z M 5.484375 4.109375 "/></g></g></g><g fill="#00afef" fill-opacity="1"><g transform="translate(46.68186, 86.478992)"><g><path d="M 5.984375 2.828125 C 6.316406 3.066406 6.566406 3.390625 6.734375 3.796875 C 6.910156 4.203125 7 4.671875 7 5.203125 L 5.15625 5.203125 C 5.175781 4.984375 5.1875 4.835938 5.1875 4.765625 C 5.1875 4.191406 5.023438 3.738281 4.703125 3.40625 C 4.378906 3.082031 3.898438 2.921875 3.265625 2.921875 L 0 2.921875 L 0 0.921875 L 6.90625 0.921875 L 6.90625 2.828125 Z M 5.984375 2.828125 "/></g></g></g><g fill="#00afef" fill-opacity="1"><g transform="translate(46.68186, 93.601286)"><g><path d="M 0.328125 5.375 C 0.179688 5.175781 0.0703125 4.929688 0 4.640625 C -0.0703125 4.359375 -0.109375 4.0625 -0.109375 3.75 C -0.109375 2.925781 0.0976562 2.289062 0.515625 1.84375 C 0.941406 1.394531 1.5625 1.171875 2.375 1.171875 L 5.203125 1.171875 L 5.203125 0.109375 L 6.75 0.109375 L 6.75 1.171875 L 8.421875 1.171875 L 8.421875 3.171875 L 6.75 3.171875 L 6.75 4.890625 L 5.203125 4.890625 L 5.203125 3.171875 L 2.40625 3.171875 C 2.113281 3.171875 1.882812 3.242188 1.71875 3.390625 C 1.5625 3.546875 1.484375 3.757812 1.484375 4.03125 C 1.484375 4.34375 1.570312 4.613281 1.75 4.84375 Z M 0.328125 5.375 "/></g></g></g><g fill="#00afef" fill-opacity="1"><g transform="translate(46.68186, 100.774898)"><g><path d="M 3.421875 7.6875 C 3.398438 7.6875 3.222656 7.671875 2.890625 7.640625 L 2.890625 2.421875 C 2.460938 2.515625 2.125 2.738281 1.875 3.09375 C 1.625 3.445312 1.5 3.882812 1.5 4.40625 C 1.5 4.757812 1.550781 5.070312 1.65625 5.34375 C 1.769531 5.625 1.941406 5.882812 2.171875 6.125 L 1.015625 7.203125 C 0.265625 6.546875 -0.109375 5.59375 -0.109375 4.34375 C -0.109375 3.570312 0.0390625 2.882812 0.34375 2.28125 C 0.65625 1.6875 1.078125 1.222656 1.609375 0.890625 C 2.148438 0.566406 2.765625 0.40625 3.453125 0.40625 C 4.128906 0.40625 4.738281 0.566406 5.28125 0.890625 C 5.820312 1.210938 6.242188 1.648438 6.546875 2.203125 C 6.847656 2.765625 7 3.394531 7 4.09375 C 7 4.769531 6.851562 5.378906 6.5625 5.921875 C 6.269531 6.472656 5.851562 6.90625 5.3125 7.21875 C 4.769531 7.53125 4.140625 7.6875 3.421875 7.6875 Z M 5.484375 4.109375 C 5.484375 3.648438 5.351562 3.265625 5.09375 2.953125 C 4.84375 2.648438 4.492188 2.46875 4.046875 2.40625 L 4.046875 5.796875 C 4.484375 5.734375 4.832031 5.546875 5.09375 5.234375 C 5.351562 4.921875 5.484375 4.546875 5.484375 4.109375 Z M 5.484375 4.109375 "/></g></g></g><g fill="#00afef" fill-opacity="1"><g transform="translate(46.68186, 110.463775)"><g><path d="M 0 5.3125 L 2.109375 3.796875 L 0 2.234375 L 0 0.046875 L 3.46875 2.703125 L 6.90625 0.140625 L 6.90625 2.390625 L 4.890625 3.84375 L 6.90625 5.34375 L 6.90625 7.484375 L 3.53125 4.90625 L 0 7.578125 Z M 0 5.3125 "/></g></g></g><g fill="#00ffff" fill-opacity="1"><g transform="translate(213.727327, 2.993377)"><g><path d="M -9.703125 8.984375 L -5.8125 0 L -3.765625 0 L 0.109375 8.984375 L -2.125 8.984375 L -4.859375 2.5625 L -7.625 8.984375 Z M -9.703125 8.984375 "/></g></g></g><g fill="#00ffff" fill-opacity="1"><g transform="translate(202.562662, 2.993377)"><g><path d="M -7.6875 3.421875 C -7.6875 3.398438 -7.671875 3.222656 -7.640625 2.890625 L -2.421875 2.890625 C -2.515625 2.460938 -2.738281 2.125 -3.09375 1.875 C -3.445312 1.625 -3.882812 1.5 -4.40625 1.5 C -4.757812 1.5 -5.070312 1.550781 -5.34375 1.65625 C -5.625 1.769531 -5.882812 1.941406 -6.125 2.171875 L -7.203125 1.015625 C -6.546875 0.265625 -5.59375 -0.109375 -4.34375 -0.109375 C -3.570312 -0.109375 -2.882812 0.0390625 -2.28125 0.34375 C -1.6875 0.65625 -1.222656 1.078125 -0.890625 1.609375 C -0.566406 2.148438 -0.40625 2.765625 -0.40625 3.453125 C -0.40625 4.128906 -0.566406 4.738281 -0.890625 5.28125 C -1.210938 5.820312 -1.648438 6.242188 -2.203125 6.546875 C -2.765625 6.847656 -3.394531 7 -4.09375 7 C -4.769531 7 -5.378906 6.851562 -5.921875 6.5625 C -6.472656 6.269531 -6.90625 5.851562 -7.21875 5.3125 C -7.53125 4.769531 -7.6875 4.140625 -7.6875 3.421875 Z M -4.109375 5.484375 C -3.648438 5.484375 -3.265625 5.351562 -2.953125 5.09375 C -2.648438 4.84375 -2.46875 4.492188 -2.40625 4.046875 L -5.796875 4.046875 C -5.734375 4.484375 -5.546875 4.832031 -5.234375 5.09375 C -4.921875 5.351562 -4.546875 5.484375 -4.109375 5.484375 Z M -4.109375 5.484375 "/></g></g></g><g fill="#00ffff" fill-opacity="1"><g transform="translate(192.873784, 2.993377)"><g><path d="M -2.828125 5.984375 C -3.066406 6.316406 -3.390625 6.566406 -3.796875 6.734375 C -4.203125 6.910156 -4.671875 7 -5.203125 7 L -5.203125 5.15625 C -4.984375 5.175781 -4.835938 5.1875 -4.765625 5.1875 C -4.191406 5.1875 -3.738281 5.023438 -3.40625 4.703125 C -3.082031 4.378906 -2.921875 3.898438 -2.921875 3.265625 L -2.921875 0 L -0.921875 0 L -0.921875 6.90625 L -2.828125 6.90625 Z M -2.828125 5.984375 "/></g></g></g><g fill="#00ffff" fill-opacity="1"><g transform="translate(185.75149, 2.993377)"><g><path d="M -5.375 0.328125 C -5.175781 0.179688 -4.929688 0.0703125 -4.640625 0 C -4.359375 -0.0703125 -4.0625 -0.109375 -3.75 -0.109375 C -2.925781 -0.109375 -2.289062 0.0976562 -1.84375 0.515625 C -1.394531 0.941406 -1.171875 1.5625 -1.171875 2.375 L -1.171875 5.203125 L -0.109375 5.203125 L -0.109375 6.75 L -1.171875 6.75 L -1.171875 8.421875 L -3.171875 8.421875 L -3.171875 6.75 L -4.890625 6.75 L -4.890625 5.203125 L -3.171875 5.203125 L -3.171875 2.40625 C -3.171875 2.113281 -3.242188 1.882812 -3.390625 1.71875 C -3.546875 1.5625 -3.757812 1.484375 -4.03125 1.484375 C -4.34375 1.484375 -4.613281 1.570312 -4.84375 1.75 Z M -5.375 0.328125 "/></g></g></g><g fill="#00ffff" fill-opacity="1"><g transform="translate(178.577879, 2.993377)"><g><path d="M -7.6875 3.421875 C -7.6875 3.398438 -7.671875 3.222656 -7.640625 2.890625 L -2.421875 2.890625 C -2.515625 2.460938 -2.738281 2.125 -3.09375 1.875 C -3.445312 1.625 -3.882812 1.5 -4.40625 1.5 C -4.757812 1.5 -5.070312 1.550781 -5.34375 1.65625 C -5.625 1.769531 -5.882812 1.941406 -6.125 2.171875 L -7.203125 1.015625 C -6.546875 0.265625 -5.59375 -0.109375 -4.34375 -0.109375 C -3.570312 -0.109375 -2.882812 0.0390625 -2.28125 0.34375 C -1.6875 0.65625 -1.222656 1.078125 -0.890625 1.609375 C -0.566406 2.148438 -0.40625 2.765625 -0.40625 3.453125 C -0.40625 4.128906 -0.566406 4.738281 -0.890625 5.28125 C -1.210938 5.820312 -1.648438 6.242188 -2.203125 6.546875 C -2.765625 6.847656 -3.394531 7 -4.09375 7 C -4.769531 7 -5.378906 6.851562 -5.921875 6.5625 C -6.472656 6.269531 -6.90625 5.851562 -7.21875 5.3125 C -7.53125 4.769531 -7.6875 4.140625 -7.6875 3.421875 Z M -4.109375 5.484375 C -3.648438 5.484375 -3.265625 5.351562 -2.953125 5.09375 C -2.648438 4.84375 -2.46875 4.492188 -2.40625 4.046875 L -5.796875 4.046875 C -5.734375 4.484375 -5.546875 4.832031 -5.234375 5.09375 C -4.921875 5.351562 -4.546875 5.484375 -4.109375 5.484375 Z M -4.109375 5.484375 "/></g></g></g><g fill="#00ffff" fill-opacity="1"><g transform="translate(168.889002, 2.993377)"><g><path d="M -5.3125 0 L -3.796875 2.109375 L -2.234375 0 L -0.046875 0 L -2.703125 3.46875 L -0.140625 6.90625 L -2.390625 6.90625 L -3.84375 4.890625 L -5.34375 6.90625 L -7.484375 6.90625 L -4.90625 3.53125 L -7.578125 0 Z M -5.3125 0 "/></g></g></g><g fill="#00ffff" fill-opacity="1"><g transform="translate(328.944428, 76.586838)"><g><path d="M -13.21875 0.59375 L -4.4375 -3.75 L -2.875 -2.421875 L -5.71875 6.9375 L -7.421875 5.484375 L -5.375 -1.1875 L -11.625 1.9375 Z M -13.21875 0.59375 "/></g></g></g><g fill="#00ffff" fill-opacity="1"><g transform="translate(320.411918, 69.386422)"><g><path d="M -8.078125 -2.34375 C -8.066406 -2.351562 -7.941406 -2.476562 -7.703125 -2.71875 L -3.703125 0.640625 C -3.503906 0.253906 -3.457031 -0.144531 -3.5625 -0.5625 C -3.675781 -0.988281 -3.9375 -1.367188 -4.34375 -1.703125 C -4.601562 -1.929688 -4.875 -2.09375 -5.15625 -2.1875 C -5.4375 -2.28125 -5.75 -2.316406 -6.09375 -2.296875 L -6.15625 -3.859375 C -5.164062 -4.015625 -4.191406 -3.6875 -3.234375 -2.875 C -2.648438 -2.382812 -2.226562 -1.828125 -1.96875 -1.203125 C -1.71875 -0.578125 -1.640625 0.0390625 -1.734375 0.65625 C -1.828125 1.269531 -2.097656 1.84375 -2.546875 2.375 C -2.972656 2.894531 -3.484375 3.253906 -4.078125 3.453125 C -4.679688 3.660156 -5.289062 3.695312 -5.90625 3.5625 C -6.53125 3.4375 -7.109375 3.148438 -7.640625 2.703125 C -8.160156 2.265625 -8.535156 1.757812 -8.765625 1.1875 C -8.992188 0.613281 -9.050781 0.0195312 -8.9375 -0.59375 C -8.832031 -1.207031 -8.546875 -1.789062 -8.078125 -2.34375 Z M -6.671875 1.53125 C -6.316406 1.832031 -5.941406 1.984375 -5.546875 1.984375 C -5.148438 1.992188 -4.785156 1.847656 -4.453125 1.546875 L -7.046875 -0.640625 C -7.273438 -0.265625 -7.351562 0.117188 -7.28125 0.515625 C -7.207031 0.910156 -7.003906 1.25 -6.671875 1.53125 Z M -6.671875 1.53125 "/></g></g></g><g fill="#00ffff" fill-opacity="1"><g transform="translate(313.007266, 63.137783)"><g><path d="M -6.015625 2.75 C -6.421875 2.84375 -6.832031 2.820312 -7.25 2.6875 C -7.675781 2.5625 -8.085938 2.328125 -8.484375 1.984375 L -7.296875 0.578125 C -7.140625 0.742188 -7.035156 0.847656 -6.984375 0.890625 C -6.546875 1.265625 -6.097656 1.429688 -5.640625 1.390625 C -5.179688 1.347656 -4.75 1.085938 -4.34375 0.609375 L -2.234375 -1.890625 L -0.703125 -0.59375 L -5.15625 4.6875 L -6.609375 3.453125 Z M -6.015625 2.75 "/></g></g></g><g fill="#00ffff" fill-opacity="1"><g transform="translate(307.564106, 58.544408)"><g><path d="M -4.328125 -3.21875 C -4.078125 -3.207031 -3.816406 -3.132812 -3.546875 -3 C -3.273438 -2.863281 -3.019531 -2.695312 -2.78125 -2.5 C -2.15625 -1.96875 -1.804688 -1.394531 -1.734375 -0.78125 C -1.671875 -0.164062 -1.898438 0.445312 -2.421875 1.0625 L -4.25 3.21875 L -3.4375 3.890625 L -4.4375 5.078125 L -5.25 4.40625 L -6.328125 5.6875 L -7.859375 4.390625 L -6.78125 3.109375 L -8.09375 2 L -7.09375 0.8125 L -5.78125 1.921875 L -3.96875 -0.203125 C -3.78125 -0.429688 -3.691406 -0.65625 -3.703125 -0.875 C -3.710938 -1.09375 -3.820312 -1.285156 -4.03125 -1.453125 C -4.269531 -1.660156 -4.535156 -1.769531 -4.828125 -1.78125 Z M -4.328125 -3.21875 "/></g></g></g><g fill="#00ffff" fill-opacity="1"><g transform="translate(302.081728, 53.917938)"><g><path d="M -8.078125 -2.34375 C -8.066406 -2.351562 -7.941406 -2.476562 -7.703125 -2.71875 L -3.703125 0.640625 C -3.503906 0.253906 -3.457031 -0.144531 -3.5625 -0.5625 C -3.675781 -0.988281 -3.9375 -1.367188 -4.34375 -1.703125 C -4.601562 -1.929688 -4.875 -2.09375 -5.15625 -2.1875 C -5.4375 -2.28125 -5.75 -2.316406 -6.09375 -2.296875 L -6.15625 -3.859375 C -5.164062 -4.015625 -4.191406 -3.6875 -3.234375 -2.875 C -2.648438 -2.382812 -2.226562 -1.828125 -1.96875 -1.203125 C -1.71875 -0.578125 -1.640625 0.0390625 -1.734375 0.65625 C -1.828125 1.269531 -2.097656 1.84375 -2.546875 2.375 C -2.972656 2.894531 -3.484375 3.253906 -4.078125 3.453125 C -4.679688 3.660156 -5.289062 3.695312 -5.90625 3.5625 C -6.53125 3.4375 -7.109375 3.148438 -7.640625 2.703125 C -8.160156 2.265625 -8.535156 1.757812 -8.765625 1.1875 C -8.992188 0.613281 -9.050781 0.0195312 -8.9375 -0.59375 C -8.832031 -1.207031 -8.546875 -1.789062 -8.078125 -2.34375 Z M -6.671875 1.53125 C -6.316406 1.832031 -5.941406 1.984375 -5.546875 1.984375 C -5.148438 1.992188 -4.785156 1.847656 -4.453125 1.546875 L -7.046875 -0.640625 C -7.273438 -0.265625 -7.351562 0.117188 -7.28125 0.515625 C -7.207031 0.910156 -7.003906 1.25 -6.671875 1.53125 Z M -6.671875 1.53125 "/></g></g></g><g fill="#00ffff" fill-opacity="1"><g transform="translate(294.677077, 47.669299)"><g><path d="M -4.0625 -3.421875 L -4.265625 -0.84375 L -1.703125 -1.4375 L -0.03125 -0.03125 L -4.296875 0.90625 L -4.5625 5.1875 L -6.28125 3.734375 L -6.09375 1.25 L -8.53125 1.828125 L -10.171875 0.453125 L -6.03125 -0.46875 L -5.796875 -4.890625 Z M -4.0625 -3.421875 "/></g></g></g><g fill="#00afef" fill-opacity="1"><g transform="translate(298.305646, 253.298578)"><g><path d="M -1.296875 -13.15625 L 3.515625 -4.625 L 2.28125 -3 L -7.21875 -5.328125 L -5.875 -7.109375 L 0.890625 -5.421875 L -2.546875 -11.5 Z M -1.296875 -13.15625 "/></g></g></g><g fill="#00afef" fill-opacity="1"><g transform="translate(305.049697, 244.400966)"><g><path d="M 1.90625 -8.1875 C 1.925781 -8.175781 2.0625 -8.0625 2.3125 -7.84375 L -0.828125 -3.6875 C -0.441406 -3.5 -0.046875 -3.46875 0.359375 -3.59375 C 0.773438 -3.726562 1.140625 -4.003906 1.453125 -4.421875 C 1.671875 -4.703125 1.820312 -4.984375 1.90625 -5.265625 C 1.988281 -5.554688 2.007812 -5.863281 1.96875 -6.1875 L 3.53125 -6.34375 C 3.738281 -5.375 3.46875 -4.394531 2.71875 -3.40625 C 2.25 -2.789062 1.710938 -2.332031 1.109375 -2.03125 C 0.503906 -1.738281 -0.109375 -1.625 -0.734375 -1.6875 C -1.367188 -1.757812 -1.957031 -2 -2.5 -2.40625 C -3.039062 -2.820312 -3.429688 -3.320312 -3.671875 -3.90625 C -3.910156 -4.488281 -3.976562 -5.09375 -3.875 -5.71875 C -3.78125 -6.34375 -3.523438 -6.9375 -3.109375 -7.5 C -2.691406 -8.039062 -2.203125 -8.4375 -1.640625 -8.6875 C -1.078125 -8.945312 -0.488281 -9.035156 0.125 -8.953125 C 0.738281 -8.878906 1.332031 -8.625 1.90625 -8.1875 Z M -1.890625 -6.59375 C -2.171875 -6.226562 -2.300781 -5.84375 -2.28125 -5.4375 C -2.257812 -5.039062 -2.085938 -4.679688 -1.765625 -4.359375 L 0.28125 -7.0625 C -0.113281 -7.28125 -0.507812 -7.34375 -0.90625 -7.25 C -1.300781 -7.15625 -1.628906 -6.9375 -1.890625 -6.59375 Z M -1.890625 -6.59375 "/></g></g></g><g fill="#00afef" fill-opacity="1"><g transform="translate(310.902294, 236.679472)"><g><path d="M -3.0625 -5.859375 C -3.1875 -6.265625 -3.191406 -6.679688 -3.078125 -7.109375 C -2.972656 -7.535156 -2.757812 -7.957031 -2.4375 -8.375 L -0.96875 -7.25 C -1.125 -7.101562 -1.222656 -7 -1.265625 -6.9375 C -1.609375 -6.476562 -1.75 -6.019531 -1.6875 -5.5625 C -1.625 -5.101562 -1.34375 -4.679688 -0.84375 -4.296875 L 1.765625 -2.328125 L 0.5625 -0.734375 L -4.9375 -4.90625 L -3.796875 -6.421875 Z M -3.0625 -5.859375 "/></g></g></g><g fill="#00afef" fill-opacity="1"><g transform="translate(315.204538, 231.003403)"><g><path d="M 2.984375 -4.484375 C 2.972656 -4.234375 2.910156 -3.972656 2.796875 -3.703125 C 2.691406 -3.429688 2.546875 -3.171875 2.359375 -2.921875 C 1.859375 -2.265625 1.300781 -1.882812 0.6875 -1.78125 C 0.0820312 -1.6875 -0.539062 -1.882812 -1.1875 -2.375 L -3.4375 -4.078125 L -4.078125 -3.234375 L -5.3125 -4.171875 L -4.671875 -5.015625 L -6.015625 -6.03125 L -4.796875 -7.625 L -3.453125 -6.609375 L -2.421875 -7.96875 L -1.1875 -7.03125 L -2.21875 -5.671875 L 0 -3.984375 C 0.238281 -3.804688 0.460938 -3.726562 0.671875 -3.75 C 0.890625 -3.769531 1.082031 -3.890625 1.25 -4.109375 C 1.4375 -4.359375 1.53125 -4.628906 1.53125 -4.921875 Z M 2.984375 -4.484375 "/></g></g></g><g fill="#00afef" fill-opacity="1"><g transform="translate(319.537781, 225.286436)"><g><path d="M 1.90625 -8.1875 C 1.925781 -8.175781 2.0625 -8.0625 2.3125 -7.84375 L -0.828125 -3.6875 C -0.441406 -3.5 -0.046875 -3.46875 0.359375 -3.59375 C 0.773438 -3.726562 1.140625 -4.003906 1.453125 -4.421875 C 1.671875 -4.703125 1.820312 -4.984375 1.90625 -5.265625 C 1.988281 -5.554688 2.007812 -5.863281 1.96875 -6.1875 L 3.53125 -6.34375 C 3.738281 -5.375 3.46875 -4.394531 2.71875 -3.40625 C 2.25 -2.789062 1.710938 -2.332031 1.109375 -2.03125 C 0.503906 -1.738281 -0.109375 -1.625 -0.734375 -1.6875 C -1.367188 -1.757812 -1.957031 -2 -2.5 -2.40625 C -3.039062 -2.820312 -3.429688 -3.320312 -3.671875 -3.90625 C -3.910156 -4.488281 -3.976562 -5.09375 -3.875 -5.71875 C -3.78125 -6.34375 -3.523438 -6.9375 -3.109375 -7.5 C -2.691406 -8.039062 -2.203125 -8.4375 -1.640625 -8.6875 C -1.078125 -8.945312 -0.488281 -9.035156 0.125 -8.953125 C 0.738281 -8.878906 1.332031 -8.625 1.90625 -8.1875 Z M -1.890625 -6.59375 C -2.171875 -6.226562 -2.300781 -5.84375 -2.28125 -5.4375 C -2.257812 -5.039062 -2.085938 -4.679688 -1.765625 -4.359375 L 0.28125 -7.0625 C -0.113281 -7.28125 -0.507812 -7.34375 -0.90625 -7.25 C -1.300781 -7.15625 -1.628906 -6.9375 -1.890625 -6.59375 Z M -1.890625 -6.59375 "/></g></g></g><g fill="#00afef" fill-opacity="1"><g transform="translate(325.390378, 217.564944)"><g><path d="M 3.203125 -4.234375 L 0.609375 -4.3125 L 1.34375 -1.78125 L 0.03125 -0.03125 L -1.125 -4.25 L -5.421875 -4.28125 L -4.0625 -6.078125 L -1.5625 -6.015625 L -2.265625 -8.4375 L -0.984375 -10.140625 L 0.15625 -6.046875 L 4.578125 -6.046875 Z M 3.203125 -4.234375 "/></g></g></g><g fill="#cb6ce6" fill-opacity="1"><g transform="translate(73.610204, 360.904478)"><g><path d="M 3.328125 2.785156 C 3.8125 3.207031 4.359375 3.449219 4.902344 3.570312 C 5.203125 3.691406 5.566406 3.691406 5.929688 3.691406 C 6.171875 3.691406 6.414062 3.691406 6.65625 3.632812 C 7.445312 3.511719 8.292969 3.027344 9.261719 2.179688 C 10.105469 1.332031 11.257812 -0.242188 12.710938 -2.480469 C 13.4375 -3.632812 14.285156 -5.023438 15.25 -6.71875 C 16.160156 -8.292969 17.25 -10.226562 18.460938 -12.40625 C 19.550781 -14.464844 20.636719 -16.460938 21.726562 -18.277344 C 22.695312 -20.035156 23.726562 -21.789062 24.753906 -23.484375 C 26.570312 -26.628906 28.507812 -29.839844 30.5625 -32.984375 C 32.5625 -36.132812 34.921875 -39.824219 37.707031 -44 C 39.28125 -46.421875 40.730469 -48.601562 41.941406 -50.535156 C 43.152344 -52.472656 43.820312 -53.5625 43.941406 -53.867188 C 44 -54.109375 44.0625 -54.289062 44.0625 -54.410156 C 44.0625 -54.652344 43.941406 -54.835938 43.699219 -54.835938 C 43.515625 -54.835938 43.335938 -54.773438 43.09375 -54.652344 C 42.246094 -54.289062 41.035156 -53.5625 39.582031 -52.414062 C 38.734375 -51.746094 37.886719 -51.019531 36.980469 -50.175781 C 36.011719 -49.265625 35.105469 -48.296875 34.136719 -47.328125 C 31.046875 -44.183594 27.660156 -39.765625 23.90625 -34.015625 C 20.09375 -28.203125 15.976562 -21.242188 11.621094 -13.011719 C 9.988281 -10.046875 8.835938 -8.050781 8.171875 -7.019531 C 7.445312 -5.992188 6.898438 -5.566406 6.597656 -5.808594 C 6.535156 -5.808594 6.476562 -7.019531 6.476562 -9.320312 C 6.476562 -11.621094 6.414062 -14.164062 6.414062 -16.945312 C 6.355469 -18.761719 6.355469 -20.578125 6.355469 -22.273438 C 6.292969 -23.96875 6.234375 -25.296875 6.234375 -26.386719 C 6.113281 -28.808594 6.050781 -30.867188 5.992188 -32.683594 C 5.929688 -34.378906 5.871094 -35.890625 5.808594 -37.101562 C 5.6875 -39.886719 5.566406 -41.457031 5.445312 -41.941406 C 5.324219 -42.367188 5.082031 -42.546875 4.84375 -42.425781 C 4.480469 -42.183594 4.054688 -40.609375 3.632812 -37.585938 C 3.207031 -34.558594 2.785156 -31.046875 2.421875 -27.054688 C 2.238281 -25.296875 2.117188 -23.542969 1.996094 -21.789062 C 1.875 -19.972656 1.753906 -18.15625 1.632812 -16.460938 C 1.390625 -13.253906 1.269531 -10.347656 1.210938 -7.808594 L 1.210938 -5.628906 C 1.210938 -4.117188 1.210938 -2.964844 1.332031 -2.238281 C 1.574219 -0.542969 1.816406 0.605469 2.058594 1.148438 C 2.238281 1.753906 2.664062 2.300781 3.328125 2.785156 Z M 3.328125 2.785156 "/></g></g></g><g fill="#cb6ce6" fill-opacity="1"><g transform="translate(111.064159, 360.904478)"><g><path d="M 13.316406 -19.671875 C 14.222656 -20.820312 14.464844 -21.847656 13.980469 -22.816406 C 13.496094 -23.664062 12.527344 -24.210938 11.195312 -24.332031 L 10.167969 -24.332031 C 9.804688 -24.269531 9.441406 -24.210938 9.078125 -24.148438 C 7.261719 -23.726562 5.445312 -22.878906 3.753906 -21.546875 C 1.996094 -20.214844 0.605469 -18.703125 -0.421875 -17.128906 C -1.027344 -16.28125 -1.453125 -15.433594 -1.695312 -14.585938 C -1.9375 -13.859375 -2.058594 -13.253906 -2.058594 -12.648438 L -2.058594 -12.226562 C -1.9375 -11.195312 -1.574219 -10.226562 -0.847656 -9.382812 C -0.242188 -8.472656 0.605469 -7.746094 1.695312 -7.261719 C 2.84375 -6.65625 4.539062 -6.292969 6.71875 -6.171875 L 7.445312 -6.171875 C 9.382812 -6.171875 11.558594 -6.476562 13.859375 -7.140625 C 15.070312 -7.503906 16.402344 -7.929688 17.792969 -8.535156 C 19.125 -9.140625 20.515625 -9.746094 21.847656 -10.46875 C 24.269531 -11.679688 26.386719 -13.011719 28.203125 -14.40625 C 30.019531 -15.734375 30.925781 -16.703125 30.988281 -17.371094 L 30.988281 -17.492188 C 30.988281 -17.613281 30.925781 -17.792969 30.925781 -17.914062 C 30.867188 -18.035156 30.804688 -18.15625 30.804688 -18.15625 C 30.683594 -18.15625 29.71875 -17.792969 27.902344 -17.066406 C 26.023438 -16.339844 23.847656 -15.433594 21.363281 -14.285156 C 16.21875 -11.863281 12.226562 -10.46875 9.320312 -10.226562 C 6.414062 -9.925781 4.054688 -10.226562 2.300781 -11.195312 C 1.574219 -11.679688 1.210938 -12.285156 1.148438 -13.011719 C 1.027344 -13.679688 1.269531 -14.527344 1.875 -15.554688 C 2.117188 -16.039062 2.480469 -16.402344 2.964844 -16.644531 C 3.390625 -16.824219 4.117188 -16.945312 5.144531 -17.007812 C 6.960938 -17.128906 8.65625 -17.429688 10.226562 -17.914062 C 11.742188 -18.398438 12.769531 -18.945312 13.316406 -19.671875 Z M 7.808594 -20.941406 C 8.472656 -21.242188 9.019531 -21.425781 9.503906 -21.484375 C 9.867188 -21.484375 10.105469 -21.546875 10.347656 -21.546875 L 10.53125 -21.546875 C 10.710938 -21.484375 10.832031 -21.425781 10.832031 -21.304688 C 10.832031 -21.183594 10.773438 -21.0625 10.652344 -20.878906 C 10.289062 -20.457031 9.988281 -20.152344 9.625 -19.972656 C 8.535156 -19.429688 7.625 -19.125 7.019531 -19.066406 C 6.476562 -19.003906 6.113281 -19.003906 5.871094 -19.003906 L 5.6875 -19.003906 C 5.507812 -19.003906 5.445312 -19.066406 5.445312 -19.1875 C 5.445312 -19.308594 5.566406 -19.429688 5.871094 -19.671875 C 6.355469 -20.09375 7.019531 -20.515625 7.808594 -20.941406 Z M 7.808594 -20.941406 "/></g></g></g><g fill="#cb6ce6" fill-opacity="1"><g transform="translate(148.518114, 360.904478)"><g><path d="M 9.320312 -27.902344 C 9.199219 -28.507812 8.957031 -29.113281 8.59375 -29.71875 C 8.230469 -30.320312 7.746094 -30.625 7.140625 -30.625 C 6.050781 -30.625 4.78125 -30.082031 3.390625 -28.992188 C 1.9375 -27.902344 0.785156 -26.386719 -0.121094 -24.511719 C -1.027344 -22.757812 -1.453125 -21.363281 -1.453125 -20.273438 L -1.453125 -20.214844 C -1.453125 -19.125 -1.089844 -18.15625 -0.242188 -17.25 C 0.300781 -16.523438 0.847656 -16.097656 1.332031 -15.976562 C 1.816406 -15.796875 2.664062 -15.734375 3.933594 -15.796875 C 4.722656 -15.796875 5.6875 -15.917969 6.839844 -16.097656 C 7.929688 -16.28125 8.835938 -16.523438 9.5625 -16.765625 C 11.074219 -17.1875 12.347656 -17.429688 13.316406 -17.550781 C 14.222656 -17.613281 14.707031 -17.492188 14.707031 -17.128906 C 14.707031 -17.007812 14.222656 -16.160156 13.253906 -14.585938 C 12.285156 -13.011719 11.136719 -11.195312 9.804688 -9.140625 C 8.414062 -7.019531 7.140625 -5.082031 6.050781 -3.269531 C 4.964844 -1.453125 4.296875 -0.242188 4.054688 0.242188 C 3.570312 1.390625 3.390625 2.421875 3.632812 3.328125 C 3.8125 4.238281 4.296875 4.84375 5.144531 5.144531 C 5.324219 5.265625 5.628906 5.386719 6.113281 5.507812 C 6.171875 5.566406 6.292969 5.566406 6.476562 5.566406 C 6.898438 5.566406 7.566406 5.445312 8.414062 5.082031 C 9.019531 4.902344 9.746094 4.601562 10.589844 4.117188 C 11.4375 3.753906 12.46875 3.148438 13.679688 2.421875 C 14.828125 1.695312 16.402344 0.542969 18.339844 -1.027344 C 20.273438 -2.601562 22.332031 -4.359375 24.390625 -6.234375 C 26.386719 -8.050781 28.324219 -9.867188 30.199219 -11.679688 C 32.015625 -13.496094 33.53125 -14.949219 34.621094 -16.160156 C 35.164062 -16.765625 35.585938 -17.308594 35.949219 -17.734375 C 36.191406 -18.035156 36.3125 -18.277344 36.3125 -18.398438 C 36.3125 -18.398438 36.253906 -18.460938 36.253906 -18.519531 C 36.132812 -18.640625 35.828125 -18.519531 35.34375 -18.277344 C 34.800781 -17.976562 33.46875 -17.066406 31.410156 -15.554688 C 30.320312 -14.707031 28.871094 -13.679688 27.175781 -12.347656 C 25.417969 -11.015625 23.300781 -9.441406 20.757812 -7.566406 C 17.550781 -5.144531 14.769531 -3.085938 12.40625 -1.453125 C 9.988281 0.242188 8.65625 0.96875 8.472656 0.726562 C 8.351562 0.605469 8.65625 -0.0585938 9.382812 -1.390625 C 10.105469 -2.664062 11.015625 -4.117188 12.164062 -5.808594 C 13.253906 -7.503906 14.222656 -9.019531 15.070312 -10.347656 C 15.855469 -11.621094 16.523438 -12.769531 17.066406 -13.738281 C 18.035156 -15.554688 18.519531 -16.945312 18.582031 -17.914062 C 18.582031 -18.824219 18.21875 -19.671875 17.613281 -20.394531 C 17.007812 -21 16.097656 -21.304688 14.769531 -21.363281 C 13.375 -21.363281 11.4375 -21.0625 8.898438 -20.457031 C 7.808594 -20.214844 7.019531 -20.035156 6.65625 -19.972656 C 6.171875 -19.851562 5.929688 -19.851562 5.871094 -19.972656 C 5.75 -20.09375 5.871094 -20.273438 6.292969 -20.578125 C 6.65625 -20.878906 7.082031 -21.242188 7.566406 -21.726562 C 8.777344 -23.058594 9.382812 -24.210938 9.441406 -25.296875 C 9.441406 -26.328125 9.441406 -27.175781 9.320312 -27.902344 Z M 2.664062 -21.96875 C 2.84375 -22.816406 3.390625 -23.785156 4.238281 -24.9375 C 5.023438 -25.902344 5.628906 -26.449219 6.113281 -26.449219 L 6.171875 -26.449219 C 6.234375 -26.449219 6.292969 -26.386719 6.292969 -26.265625 C 6.292969 -26.085938 6.171875 -25.78125 6.050781 -25.417969 C 5.6875 -24.753906 5.324219 -24.089844 4.84375 -23.484375 C 4.417969 -22.9375 3.996094 -22.515625 3.632812 -22.210938 C 3.390625 -21.96875 3.148438 -21.910156 2.964844 -21.910156 C 2.84375 -21.847656 2.722656 -21.847656 2.664062 -21.96875 Z M 2.664062 -21.96875 "/></g></g></g><g fill="#cb6ce6" fill-opacity="1"><g transform="translate(190.933276, 360.904478)"><g><path d="M 23.664062 -39.824219 C 25.238281 -42.003906 25.902344 -44.0625 25.660156 -45.996094 C 25.417969 -47.8125 24.632812 -48.722656 23.421875 -48.722656 L 23.300781 -48.722656 C 22.816406 -48.722656 22.332031 -48.601562 21.789062 -48.359375 C 21.183594 -48.117188 20.578125 -47.753906 19.972656 -47.269531 C 19.367188 -46.84375 18.640625 -46.238281 17.855469 -45.511719 C 17.066406 -44.726562 16.28125 -43.878906 15.433594 -42.910156 C 13.738281 -41.09375 12.105469 -39.039062 10.410156 -36.738281 C 8.65625 -34.4375 7.203125 -32.199219 6.050781 -30.082031 C 5.566406 -29.234375 5.144531 -28.445312 4.78125 -27.839844 L 3.691406 -26.023438 L 1.210938 -26.023438 C -0.363281 -26.085938 -1.148438 -25.660156 -1.210938 -24.753906 L -1.210938 -24.511719 C -1.210938 -23.664062 -0.90625 -23.058594 -0.179688 -22.574219 C -0.0585938 -22.453125 0.300781 -22.394531 0.847656 -22.394531 C 1.332031 -22.394531 1.695312 -22.332031 2.058594 -22.332031 C 2.058594 -21.96875 1.816406 -21.425781 1.453125 -20.578125 C 1.027344 -19.730469 0.605469 -18.703125 0.179688 -17.613281 C -0.121094 -16.886719 -0.363281 -16.039062 -0.542969 -15.191406 C -0.785156 -14.222656 -0.90625 -13.316406 -0.96875 -12.347656 C -1.210938 -10.46875 -1.269531 -8.714844 -1.148438 -7.082031 C -1.089844 -5.386719 -0.847656 -4.296875 -0.421875 -3.8125 C 0.300781 -2.664062 1.390625 -2.117188 2.785156 -2.179688 L 3.269531 -2.179688 C 4.84375 -2.300781 6.65625 -2.964844 8.59375 -4.054688 C 9.925781 -4.78125 11.378906 -5.628906 13.074219 -6.65625 C 14.707031 -7.625 17.308594 -9.320312 20.878906 -11.742188 C 23.242188 -13.316406 25.417969 -14.527344 27.355469 -15.492188 C 29.292969 -16.460938 30.625 -17.128906 31.410156 -17.613281 C 31.59375 -17.671875 31.652344 -17.792969 31.652344 -17.914062 L 31.652344 -17.976562 C 31.59375 -18.097656 31.410156 -18.15625 31.167969 -18.21875 C 30.140625 -18.277344 28.445312 -17.976562 26.023438 -17.25 C 23.605469 -16.523438 20.273438 -14.949219 16.097656 -12.527344 C 14.222656 -11.4375 12.648438 -10.589844 11.316406 -9.867188 C 9.988281 -9.140625 8.835938 -8.535156 7.988281 -8.109375 C 5.871094 -7.082031 4.660156 -6.71875 4.296875 -6.960938 C 3.933594 -7.203125 3.632812 -7.625 3.390625 -8.230469 C 3.207031 -8.59375 3.207031 -9.441406 3.390625 -10.773438 C 3.511719 -12.105469 3.8125 -13.496094 4.238281 -14.949219 C 4.417969 -15.734375 4.660156 -16.523438 4.902344 -17.308594 C 5.144531 -18.035156 5.445312 -18.703125 5.75 -19.308594 C 6.414062 -20.636719 6.898438 -21.667969 7.261719 -22.394531 C 8.351562 -22.574219 9.441406 -22.757812 10.652344 -22.878906 C 11.742188 -23 12.832031 -23.179688 13.859375 -23.363281 C 15.554688 -23.605469 16.945312 -23.847656 17.976562 -24.148438 C 18.945312 -24.390625 19.488281 -24.695312 19.488281 -24.996094 C 19.609375 -25.359375 19.003906 -25.660156 17.792969 -25.78125 C 16.523438 -25.902344 15.191406 -25.964844 13.800781 -25.964844 C 12.953125 -26.023438 11.984375 -26.023438 11.015625 -26.023438 L 8.714844 -26.023438 C 8.714844 -26.328125 9.078125 -26.8125 9.867188 -27.417969 C 10.652344 -28.023438 11.800781 -28.871094 13.375 -29.898438 C 14.34375 -30.503906 15.433594 -31.410156 16.765625 -32.5625 C 18.097656 -33.652344 19.308594 -34.863281 20.515625 -36.070312 C 21.121094 -36.675781 21.726562 -37.34375 22.273438 -38.007812 C 22.816406 -38.613281 23.300781 -39.21875 23.664062 -39.824219 Z M 19.914062 -43.394531 C 20.394531 -43.820312 20.820312 -44.183594 21.242188 -44.484375 C 21.546875 -44.726562 21.789062 -44.847656 21.96875 -44.847656 L 22.03125 -44.847656 C 22.03125 -44.847656 22.089844 -44.789062 22.089844 -44.789062 L 22.089844 -44.726562 C 22.089844 -44.667969 22.152344 -44.605469 22.152344 -44.605469 C 22.152344 -44.121094 21.726562 -43.335938 20.941406 -42.183594 C 20.035156 -40.851562 18.824219 -39.402344 17.308594 -37.707031 C 15.976562 -36.253906 14.707031 -35.042969 13.375 -33.953125 C 12.40625 -33.105469 11.742188 -32.742188 11.5 -32.742188 C 11.378906 -32.742188 11.378906 -32.804688 11.378906 -32.925781 C 11.378906 -33.105469 11.800781 -33.832031 12.769531 -35.105469 C 13.738281 -36.3125 14.769531 -37.585938 15.917969 -38.976562 C 16.644531 -39.824219 17.429688 -40.671875 18.15625 -41.519531 C 18.882812 -42.304688 19.429688 -42.910156 19.914062 -43.394531 Z M 19.914062 -43.394531 "/></g></g></g><g fill="#cb6ce6" fill-opacity="1"><g transform="translate(228.387237, 360.904478)"><g><path d="M 13.316406 -19.671875 C 14.222656 -20.820312 14.464844 -21.847656 13.980469 -22.816406 C 13.496094 -23.664062 12.527344 -24.210938 11.195312 -24.332031 L 10.167969 -24.332031 C 9.804688 -24.269531 9.441406 -24.210938 9.078125 -24.148438 C 7.261719 -23.726562 5.445312 -22.878906 3.753906 -21.546875 C 1.996094 -20.214844 0.605469 -18.703125 -0.421875 -17.128906 C -1.027344 -16.28125 -1.453125 -15.433594 -1.695312 -14.585938 C -1.9375 -13.859375 -2.058594 -13.253906 -2.058594 -12.648438 L -2.058594 -12.226562 C -1.9375 -11.195312 -1.574219 -10.226562 -0.847656 -9.382812 C -0.242188 -8.472656 0.605469 -7.746094 1.695312 -7.261719 C 2.84375 -6.65625 4.539062 -6.292969 6.71875 -6.171875 L 7.445312 -6.171875 C 9.382812 -6.171875 11.558594 -6.476562 13.859375 -7.140625 C 15.070312 -7.503906 16.402344 -7.929688 17.792969 -8.535156 C 19.125 -9.140625 20.515625 -9.746094 21.847656 -10.46875 C 24.269531 -11.679688 26.386719 -13.011719 28.203125 -14.40625 C 30.019531 -15.734375 30.925781 -16.703125 30.988281 -17.371094 L 30.988281 -17.492188 C 30.988281 -17.613281 30.925781 -17.792969 30.925781 -17.914062 C 30.867188 -18.035156 30.804688 -18.15625 30.804688 -18.15625 C 30.683594 -18.15625 29.71875 -17.792969 27.902344 -17.066406 C 26.023438 -16.339844 23.847656 -15.433594 21.363281 -14.285156 C 16.21875 -11.863281 12.226562 -10.46875 9.320312 -10.226562 C 6.414062 -9.925781 4.054688 -10.226562 2.300781 -11.195312 C 1.574219 -11.679688 1.210938 -12.285156 1.148438 -13.011719 C 1.027344 -13.679688 1.269531 -14.527344 1.875 -15.554688 C 2.117188 -16.039062 2.480469 -16.402344 2.964844 -16.644531 C 3.390625 -16.824219 4.117188 -16.945312 5.144531 -17.007812 C 6.960938 -17.128906 8.65625 -17.429688 10.226562 -17.914062 C 11.742188 -18.398438 12.769531 -18.945312 13.316406 -19.671875 Z M 7.808594 -20.941406 C 8.472656 -21.242188 9.019531 -21.425781 9.503906 -21.484375 C 9.867188 -21.484375 10.105469 -21.546875 10.347656 -21.546875 L 10.53125 -21.546875 C 10.710938 -21.484375 10.832031 -21.425781 10.832031 -21.304688 C 10.832031 -21.183594 10.773438 -21.0625 10.652344 -20.878906 C 10.289062 -20.457031 9.988281 -20.152344 9.625 -19.972656 C 8.535156 -19.429688 7.625 -19.125 7.019531 -19.066406 C 6.476562 -19.003906 6.113281 -19.003906 5.871094 -19.003906 L 5.6875 -19.003906 C 5.507812 -19.003906 5.445312 -19.066406 5.445312 -19.1875 C 5.445312 -19.308594 5.566406 -19.429688 5.871094 -19.671875 C 6.355469 -20.09375 7.019531 -20.515625 7.808594 -20.941406 Z M 7.808594 -20.941406 "/></g></g></g><g fill="#cb6ce6" fill-opacity="1"><g transform="translate(265.841198, 360.904478)"><g><path d="M -3.933594 -1.996094 C -3.933594 -1.511719 -3.8125 -1.332031 -3.570312 -1.332031 C -3.449219 -1.332031 -3.207031 -1.390625 -2.964844 -1.632812 C -2.359375 -2.058594 -1.148438 -3.269531 0.605469 -5.203125 C 2.179688 -6.898438 3.328125 -8.230469 4.117188 -9.078125 C 4.964844 -7.988281 6.476562 -7.082031 8.535156 -6.292969 C 10.589844 -5.507812 13.195312 -5.386719 16.339844 -5.871094 C 18.21875 -6.171875 20.273438 -6.777344 22.574219 -7.746094 C 24.753906 -8.714844 27.175781 -10.046875 29.777344 -11.863281 C 31.957031 -13.375 33.773438 -14.769531 35.222656 -16.039062 C 36.433594 -17.128906 37.101562 -17.855469 37.101562 -18.15625 C 37.101562 -18.15625 37.039062 -18.21875 37.039062 -18.277344 C 36.917969 -18.339844 36.132812 -18.035156 34.558594 -17.429688 C 32.925781 -16.765625 31.046875 -15.976562 28.871094 -15.011719 C 26.8125 -14.042969 24.695312 -13.132812 22.515625 -12.347656 C 20.273438 -11.5 18.15625 -10.894531 16.160156 -10.652344 C 14.34375 -10.347656 12.648438 -10.347656 11.136719 -10.710938 C 9.5625 -11.015625 8.351562 -11.800781 7.382812 -13.074219 C 8.835938 -14.648438 9.925781 -15.796875 10.710938 -16.644531 C 12.347656 -18.398438 13.316406 -19.730469 13.679688 -20.636719 C 14.042969 -21.546875 13.738281 -22.089844 12.769531 -22.273438 C 12.527344 -22.332031 11.984375 -22.089844 11.136719 -21.484375 C 10.289062 -20.878906 9.320312 -20.09375 8.351562 -19.125 C 7.382812 -18.21875 6.476562 -17.492188 5.6875 -16.886719 C 4.84375 -16.28125 4.359375 -16.039062 4.238281 -16.160156 C 4.117188 -16.21875 3.8125 -16.703125 3.449219 -17.671875 C 3.027344 -18.519531 2.601562 -19.609375 2.238281 -20.820312 C 1.753906 -21.96875 1.332031 -23 0.90625 -23.847656 C 0.484375 -24.695312 0.179688 -25.117188 0 -25.117188 C -0.542969 -25.117188 -0.785156 -24.148438 -0.664062 -22.210938 C -0.605469 -20.273438 -0.242188 -18.277344 0.421875 -16.339844 C 0.664062 -15.371094 0.90625 -14.527344 1.148438 -13.738281 C 1.390625 -12.953125 1.511719 -12.46875 1.511719 -12.347656 C 1.511719 -12.164062 1.210938 -11.558594 0.726562 -10.589844 C 0.121094 -9.5625 -0.484375 -8.472656 -1.210938 -7.261719 C -1.9375 -5.992188 -2.601562 -4.84375 -3.148438 -3.8125 C -3.691406 -2.785156 -3.933594 -2.179688 -3.933594 -1.996094 Z M -3.933594 -1.996094 "/></g></g></g></svg>